<svg xmlns="http://www.w3.org/2000/svg" xmlns:xlink="http://www.w3.org/1999/xlink" width="500" zoomAndPan="magnify" viewBox="0 0 5184 2592.000001" height="500" preserveAspectRatio="xMidYMid meet" version="1.0"><defs><g/><clipPath id="4d8e9504f1"><path d="M 1232.636719 953.378906 L 1644.976562 953.378906 L 1644.976562 1365.71875 L 1232.636719 1365.71875 Z M 1232.636719 953.378906 " clip-rule="nonzero"/></clipPath><clipPath id="d1358b1e36"><path d="M 3284.214844 1042 L 3696.394531 1042 L 3696.394531 1133 L 3284.214844 1133 Z M 3284.214844 1042 " clip-rule="nonzero"/></clipPath><clipPath id="04d30ca7cd"><path d="M 3284.214844 1186 L 3696.394531 1186 L 3696.394531 1277 L 3284.214844 1277 Z M 3284.214844 1186 " clip-rule="nonzero"/></clipPath><clipPath id="b20a9f2e73"><path d="M 1 604.417969 L 1040 604.417969 L 1040 1627.023438 L 1 1627.023438 Z M 1 604.417969 " clip-rule="nonzero"/></clipPath><clipPath id="7938368482"><path d="M 1853.390625 731.558594 L 3117.777344 731.558594 L 3117.777344 1500 L 1853.390625 1500 Z M 1853.390625 731.558594 " clip-rule="nonzero"/></clipPath><clipPath id="7405fdc181"><path d="M 3862.992188 731.558594 L 5127.378906 731.558594 L 5127.378906 1500 L 3862.992188 1500 Z M 3862.992188 731.558594 " clip-rule="nonzero"/></clipPath></defs><path fill="#545454" d="M 1408.851562 1355.734375 L 1400.628906 1355.734375 C 1398.867188 1355.734375 1397.101562 1355.734375 1395.929688 1355.148438 C 1394.167969 1355.148438 1392.40625 1354.558594 1390.640625 1353.972656 C 1387.117188 1353.382812 1383.59375 1351.621094 1380.65625 1348.6875 C 1375.957031 1345.160156 1371.257812 1339.289062 1370.671875 1326.953125 C 1370.671875 1326.953125 1370.085938 1318.730469 1370.085938 1316.378906 C 1369.496094 1304.632812 1368.910156 1294.648438 1368.910156 1285.25 L 1368.910156 1274.089844 C 1368.910156 1267.628906 1368.910156 1260.578125 1368.320312 1254.117188 C 1367.734375 1246.480469 1367.734375 1237.671875 1367.148438 1228.859375 L 1318.980469 1228.859375 C 1310.171875 1228.859375 1301.949219 1228.273438 1293.722656 1227.683594 L 1276.101562 1227.683594 C 1273.753906 1227.683594 1270.816406 1227.683594 1267.878906 1226.511719 C 1263.769531 1225.335938 1259.65625 1223.574219 1255.542969 1220.050781 C 1250.257812 1215.351562 1247.320312 1208.890625 1247.320312 1201.839844 L 1247.320312 1193.03125 L 1247.910156 1188.332031 L 1247.910156 1179.519531 C 1247.910156 1176.582031 1247.320312 1173.058594 1246.734375 1168.949219 C 1245.558594 1161.898438 1244.972656 1154.851562 1244.382812 1148.390625 L 1243.796875 1144.277344 C 1243.210938 1140.753906 1243.210938 1137.230469 1242.621094 1133.117188 L 1242.621094 1117.84375 C 1242.621094 1116.082031 1242.621094 1114.320312 1243.210938 1113.144531 C 1243.210938 1111.382812 1243.796875 1109.621094 1244.382812 1107.859375 C 1245.558594 1104.335938 1246.734375 1100.8125 1249.671875 1097.875 C 1253.195312 1094.351562 1259.070312 1089.0625 1271.402344 1088.476562 L 1281.976562 1087.890625 C 1293.722656 1087.300781 1303.710938 1086.714844 1313.109375 1086.714844 L 1324.269531 1086.714844 C 1330.730469 1086.714844 1337.191406 1086.714844 1344.238281 1086.125 C 1350.113281 1086.125 1356.574219 1085.539062 1363.035156 1085.539062 C 1363.621094 1075.554688 1364.210938 1064.980469 1365.386719 1055.582031 C 1365.386719 1052.058594 1365.972656 1048.535156 1365.972656 1044.421875 L 1367.734375 1021.515625 L 1368.320312 1015.054688 C 1369.496094 1006.242188 1370.085938 996.84375 1371.257812 987.445312 C 1371.847656 980.398438 1377.132812 975.113281 1381.246094 972.175781 C 1382.417969 971.585938 1383.59375 970.414062 1385.355469 969.824219 C 1388.878906 966.886719 1393.578125 965.125 1398.277344 965.125 L 1401.214844 965.125 C 1407.089844 964.539062 1412.960938 964.539062 1418.835938 964.539062 L 1422.359375 964.539062 C 1432.347656 964.539062 1442.332031 965.125 1450.554688 966.300781 L 1455.839844 966.300781 C 1461.128906 966.300781 1467.589844 966.300781 1474.636719 967.476562 L 1476.398438 967.476562 C 1478.75 967.476562 1481.097656 968.0625 1484.035156 968.652344 C 1488.734375 969.824219 1493.433594 971.585938 1498.132812 975.699219 C 1502.832031 979.8125 1505.179688 984.511719 1506.945312 988.035156 C 1507.53125 990.382812 1508.707031 993.90625 1508.707031 996.257812 C 1509.292969 1000.371094 1510.46875 1003.894531 1510.46875 1006.832031 C 1511.054688 1012.117188 1511.644531 1017.402344 1511.644531 1023.277344 C 1511.644531 1032.085938 1511.644531 1040.3125 1511.054688 1048.535156 L 1511.054688 1054.40625 C 1511.054688 1056.757812 1511.054688 1058.519531 1510.46875 1060.871094 C 1510.46875 1063.804688 1509.878906 1066.742188 1509.878906 1070.265625 L 1509.878906 1081.425781 C 1521.039062 1082.015625 1532.789062 1082.601562 1543.359375 1083.777344 C 1546.886719 1083.777344 1550.410156 1084.363281 1554.519531 1084.363281 L 1577.429688 1086.125 L 1583.890625 1086.714844 C 1592.113281 1087.300781 1602.097656 1088.476562 1611.496094 1089.652344 C 1618.546875 1090.238281 1623.832031 1095.523438 1626.769531 1099.636719 C 1627.355469 1100.8125 1628.53125 1101.984375 1629.117188 1103.75 C 1632.054688 1107.273438 1633.816406 1111.972656 1633.816406 1116.671875 L 1633.816406 1119.605469 C 1634.40625 1125.480469 1634.40625 1131.355469 1634.40625 1137.230469 C 1634.40625 1148.390625 1633.816406 1160.136719 1632.644531 1169.535156 L 1632.644531 1174.820312 C 1632.644531 1180.109375 1632.644531 1187.15625 1631.46875 1193.617188 L 1631.46875 1195.378906 C 1631.46875 1197.730469 1630.882812 1200.078125 1630.292969 1203.015625 C 1629.117188 1207.714844 1627.355469 1212.414062 1623.246094 1217.113281 C 1619.132812 1221.8125 1614.433594 1224.160156 1610.910156 1225.921875 C 1607.386719 1227.683594 1604.449219 1228.273438 1602.097656 1228.859375 C 1597.988281 1229.449219 1594.464844 1230.621094 1591.527344 1230.621094 C 1586.828125 1229.449219 1581.539062 1229.449219 1575.078125 1229.449219 L 1571.554688 1229.449219 C 1563.917969 1229.449219 1556.871094 1228.859375 1549.824219 1228.859375 L 1543.949219 1228.859375 C 1541.597656 1228.859375 1539.835938 1228.859375 1537.488281 1228.273438 C 1534.550781 1228.273438 1531.613281 1227.683594 1528.089844 1227.683594 L 1510.46875 1227.683594 L 1510.46875 1279.375 C 1510.46875 1287.597656 1509.878906 1296.410156 1509.292969 1304.632812 L 1508.707031 1312.855469 L 1508.707031 1322.253906 C 1508.707031 1324.601562 1508.707031 1327.539062 1507.53125 1330.476562 C 1506.355469 1334.589844 1504.59375 1338.699219 1501.070312 1342.8125 C 1496.371094 1348.097656 1489.910156 1351.035156 1482.859375 1351.035156 L 1481.097656 1351.035156 C 1479.335938 1351.035156 1477.574219 1351.035156 1475.8125 1350.449219 L 1474.050781 1350.449219 L 1469.9375 1349.859375 L 1461.714844 1349.859375 C 1458.777344 1349.859375 1455.253906 1350.449219 1451.144531 1351.035156 C 1444.09375 1352.210938 1437.046875 1352.796875 1430.585938 1353.382812 L 1426.472656 1353.972656 C 1422.949219 1354.558594 1419.425781 1354.558594 1415.3125 1355.148438 C 1413.550781 1355.734375 1411.199219 1355.734375 1408.851562 1355.734375 Z M 1408.851562 1355.734375 " fill-opacity="1" fill-rule="nonzero"/><g clip-path="url(#4d8e9504f1)"><path fill="#737373" d="M 1422.359375 973.9375 C 1431.757812 973.9375 1441.746094 974.523438 1449.96875 975.699219 L 1455.839844 975.699219 C 1461.128906 975.699219 1467 975.699219 1473.464844 976.875 L 1475.226562 976.875 C 1476.988281 976.875 1478.75 977.460938 1480.511719 978.046875 C 1483.449219 979.222656 1487.558594 980.398438 1490.496094 982.746094 C 1493.433594 985.683594 1495.195312 988.035156 1496.957031 991.558594 C 1498.132812 993.90625 1498.71875 996.84375 1499.308594 998.605469 C 1499.894531 1002.132812 1500.484375 1005.066406 1501.070312 1008.003906 C 1501.65625 1012.703125 1501.65625 1017.402344 1502.246094 1023.277344 C 1502.246094 1031.5 1502.246094 1039.722656 1501.65625 1047.945312 L 1501.65625 1053.820312 C 1501.65625 1055.582031 1501.65625 1057.933594 1501.070312 1059.695312 C 1501.070312 1062.632812 1500.484375 1066.15625 1500.484375 1069.09375 L 1500.484375 1090.824219 L 1509.292969 1090.824219 C 1520.453125 1091.414062 1532.199219 1092 1543.359375 1093.175781 C 1546.886719 1093.175781 1550.996094 1093.761719 1554.519531 1093.761719 L 1577.429688 1095.523438 L 1584.476562 1096.113281 C 1593.289062 1097.285156 1602.6875 1097.875 1611.496094 1099.050781 C 1614.433594 1099.636719 1617.957031 1101.984375 1619.132812 1104.335938 L 1620.894531 1107.859375 C 1623.246094 1110.210938 1624.417969 1113.144531 1624.417969 1116.082031 L 1624.417969 1119.019531 C 1625.007812 1124.894531 1625.007812 1130.179688 1625.007812 1136.054688 C 1625.007812 1146.625 1624.417969 1158.375 1623.832031 1167.183594 L 1623.832031 1173.058594 C 1623.832031 1178.34375 1623.832031 1184.21875 1622.65625 1190.679688 L 1622.65625 1192.441406 C 1622.65625 1194.203125 1622.070312 1195.964844 1621.484375 1197.730469 C 1620.308594 1200.664062 1619.132812 1204.777344 1616.785156 1207.714844 C 1613.847656 1210.652344 1611.496094 1212.414062 1607.972656 1214.175781 C 1605.625 1215.351562 1602.6875 1215.9375 1600.925781 1216.523438 C 1597.398438 1217.113281 1594.464844 1217.699219 1591.527344 1218.289062 C 1586.828125 1218.875 1582.128906 1218.875 1576.253906 1219.460938 L 1572.730469 1219.460938 C 1565.683594 1219.460938 1558.632812 1218.875 1551.585938 1218.875 L 1545.710938 1218.875 C 1543.949219 1218.875 1541.597656 1218.875 1539.835938 1218.289062 C 1535.136719 1217.699219 1532.199219 1217.699219 1528.675781 1217.699219 L 1501.070312 1217.699219 C 1501.070312 1227.683594 1501.070312 1238.257812 1500.484375 1247.65625 L 1500.484375 1279.960938 C 1500.484375 1288.183594 1499.894531 1296.996094 1499.308594 1305.21875 L 1498.71875 1313.441406 L 1498.71875 1322.839844 C 1498.71875 1324.601562 1498.71875 1326.363281 1498.132812 1328.128906 C 1496.957031 1331.0625 1496.371094 1334 1494.019531 1336.351562 C 1491.085938 1339.289062 1486.972656 1341.636719 1482.859375 1341.636719 L 1475.8125 1341.636719 L 1473.464844 1341.050781 L 1461.128906 1341.050781 C 1457.605469 1341.050781 1454.078125 1341.636719 1449.96875 1342.222656 C 1442.917969 1342.8125 1436.457031 1343.988281 1429.410156 1344.574219 L 1425.886719 1344.574219 C 1422.359375 1345.160156 1418.835938 1345.160156 1415.3125 1345.160156 L 1401.214844 1345.160156 C 1400.039062 1345.160156 1398.277344 1345.160156 1397.105469 1344.574219 C 1395.929688 1344.574219 1394.753906 1343.988281 1393.578125 1343.988281 C 1391.230469 1343.398438 1389.46875 1342.222656 1387.707031 1341.050781 C 1383.59375 1338.113281 1381.832031 1333.414062 1381.246094 1326.953125 L 1381.246094 1323.429688 C 1381.246094 1321.078125 1381.246094 1318.730469 1380.65625 1316.378906 C 1380.070312 1304.632812 1379.480469 1294.648438 1379.480469 1285.25 L 1379.480469 1274.675781 C 1379.480469 1268.214844 1379.480469 1261.164062 1378.894531 1254.117188 C 1378.308594 1244.132812 1377.71875 1232.972656 1377.71875 1221.8125 L 1377.71875 1219.460938 L 1319.570312 1219.460938 C 1311.347656 1219.460938 1302.535156 1218.875 1294.3125 1218.289062 L 1286.089844 1217.699219 L 1276.691406 1217.699219 C 1274.929688 1217.699219 1273.167969 1217.699219 1271.402344 1217.113281 C 1268.46875 1215.9375 1265.53125 1215.351562 1263.179688 1213 C 1260.242188 1210.0625 1257.894531 1205.953125 1257.894531 1201.839844 L 1257.894531 1179.519531 C 1257.894531 1175.996094 1257.308594 1172.472656 1256.71875 1168.359375 C 1256.132812 1161.3125 1254.957031 1154.851562 1254.371094 1147.800781 L 1254.371094 1144.277344 C 1253.78125 1140.753906 1253.78125 1137.230469 1253.78125 1133.703125 L 1253.78125 1120.195312 C 1253.78125 1119.019531 1253.78125 1117.257812 1254.371094 1116.082031 C 1254.371094 1114.910156 1254.957031 1113.734375 1254.957031 1112.558594 C 1255.546875 1110.210938 1256.71875 1108.445312 1257.894531 1106.683594 C 1260.832031 1102.574219 1265.53125 1100.8125 1271.992188 1100.222656 L 1275.515625 1100.222656 C 1277.867188 1100.222656 1280.214844 1100.222656 1282.5625 1099.636719 C 1294.3125 1099.050781 1304.296875 1098.460938 1313.695312 1098.460938 L 1324.269531 1098.460938 C 1330.730469 1098.460938 1337.777344 1098.460938 1344.828125 1097.875 C 1353.636719 1097.285156 1363.621094 1097.285156 1373.019531 1096.699219 L 1373.019531 1091.414062 C 1373.609375 1080.253906 1374.195312 1068.503906 1375.371094 1057.34375 C 1375.371094 1053.820312 1375.957031 1049.710938 1375.957031 1046.183594 L 1377.71875 1023.277344 L 1378.308594 1016.226562 C 1379.480469 1006.242188 1380.65625 996.84375 1381.832031 988.035156 C 1382.417969 985.097656 1384.769531 981.574219 1387.117188 980.398438 L 1390.640625 978.636719 C 1392.992188 976.285156 1395.929688 975.113281 1398.867188 975.113281 L 1401.800781 975.113281 C 1407.675781 974.523438 1412.960938 974.523438 1418.835938 974.523438 C 1420.011719 973.9375 1421.1875 973.9375 1422.359375 973.9375 M 1422.359375 953.378906 L 1418.25 953.378906 C 1412.375 953.378906 1406.5 953.964844 1400.628906 953.964844 L 1397.691406 953.964844 C 1391.230469 954.554688 1385.355469 956.316406 1380.070312 959.839844 C 1378.308594 960.425781 1377.132812 961.601562 1375.371094 962.1875 C 1367.734375 968.0625 1362.449219 976.875 1361.273438 985.097656 C 1360.097656 994.496094 1359.511719 1003.894531 1358.335938 1012.703125 L 1357.75 1019.753906 C 1357.160156 1027.976562 1356.574219 1035.613281 1355.988281 1043.246094 C 1355.988281 1046.773438 1355.398438 1050.296875 1355.398438 1054.40625 L 1353.636719 1075.554688 C 1350.113281 1075.554688 1347.175781 1076.140625 1343.652344 1076.140625 C 1337.191406 1076.726562 1330.730469 1076.726562 1324.269531 1076.726562 L 1313.109375 1076.726562 C 1303.710938 1076.726562 1293.726562 1077.316406 1281.390625 1077.902344 C 1279.039062 1077.902344 1276.691406 1077.902344 1274.339844 1078.492188 L 1270.816406 1078.492188 C 1254.957031 1079.078125 1246.148438 1086.125 1241.449219 1092.585938 C 1237.921875 1096.699219 1235.574219 1101.398438 1234.398438 1106.097656 C 1233.8125 1108.445312 1233.222656 1110.210938 1233.222656 1112.558594 C 1233.222656 1114.320312 1232.636719 1116.082031 1232.636719 1117.84375 L 1232.636719 1134.292969 C 1232.636719 1138.402344 1233.222656 1141.925781 1233.8125 1145.453125 L 1233.8125 1148.976562 C 1234.398438 1155.4375 1234.988281 1163.074219 1236.160156 1170.121094 C 1236.75 1174.234375 1236.75 1177.171875 1237.335938 1180.109375 L 1237.335938 1193.03125 C 1237.335938 1195.378906 1236.75 1197.730469 1236.75 1200.664062 L 1236.75 1201.253906 C 1237.335938 1210.652344 1241.449219 1220.050781 1248.496094 1226.511719 C 1254.371094 1232.382812 1261.417969 1234.144531 1264.941406 1235.320312 C 1269.640625 1236.496094 1273.753906 1237.082031 1276.101562 1237.082031 L 1285.5 1237.082031 L 1293.136719 1237.671875 C 1301.359375 1238.257812 1310.171875 1238.257812 1318.394531 1238.84375 L 1357.75 1238.84375 C 1357.75 1244.132812 1358.335938 1249.417969 1358.335938 1254.703125 C 1358.925781 1261.164062 1358.925781 1267.628906 1358.925781 1274.089844 L 1358.925781 1285.835938 C 1358.925781 1295.234375 1359.511719 1305.21875 1360.097656 1317.554688 C 1360.097656 1319.902344 1360.097656 1322.253906 1360.6875 1324.601562 L 1360.6875 1328.128906 C 1361.273438 1343.988281 1368.320312 1352.796875 1374.78125 1357.496094 C 1378.894531 1361.019531 1383.59375 1363.371094 1388.292969 1364.542969 C 1390.640625 1365.132812 1392.40625 1365.71875 1394.753906 1365.71875 C 1396.515625 1365.71875 1398.277344 1366.308594 1400.039062 1366.308594 L 1416.488281 1366.308594 C 1420.597656 1366.308594 1424.125 1365.71875 1427.648438 1365.132812 L 1431.171875 1365.132812 C 1437.632812 1364.542969 1445.269531 1363.957031 1452.316406 1362.78125 C 1456.429688 1362.195312 1459.367188 1362.195312 1462.304688 1361.609375 L 1474.636719 1361.609375 C 1476.398438 1361.609375 1478.160156 1362.195312 1481.097656 1362.195312 L 1483.449219 1362.195312 C 1492.847656 1361.609375 1502.246094 1357.496094 1508.707031 1350.449219 C 1514.578125 1344.574219 1516.339844 1337.523438 1517.515625 1334 C 1518.691406 1329.300781 1519.277344 1325.191406 1519.277344 1322.839844 L 1519.277344 1313.441406 L 1520.453125 1305.808594 C 1521.039062 1297.582031 1521.039062 1288.773438 1521.628906 1280.550781 L 1521.628906 1238.257812 L 1528.675781 1238.257812 C 1531.613281 1238.257812 1534.550781 1238.257812 1537.488281 1238.84375 C 1539.835938 1238.84375 1541.597656 1238.84375 1543.949219 1239.433594 L 1549.824219 1239.433594 C 1556.871094 1240.019531 1564.507812 1240.019531 1572.144531 1240.019531 L 1575.667969 1240.019531 C 1582.128906 1240.019531 1587.414062 1239.433594 1593.289062 1238.84375 C 1596.8125 1238.257812 1600.925781 1237.671875 1605.035156 1236.496094 C 1607.972656 1235.910156 1611.496094 1234.734375 1616.195312 1232.972656 C 1620.308594 1231.210938 1626.183594 1227.683594 1632.054688 1221.8125 C 1637.34375 1215.9375 1639.691406 1209.476562 1641.453125 1204.191406 C 1642.628906 1200.664062 1642.628906 1197.140625 1643.214844 1194.792969 L 1643.214844 1193.617188 C 1643.804688 1185.980469 1644.390625 1179.519531 1644.390625 1173.644531 L 1644.390625 1168.945312 C 1644.976562 1159.550781 1646.152344 1147.800781 1646.152344 1136.054688 C 1646.152344 1130.179688 1645.566406 1124.304688 1645.566406 1118.433594 L 1645.566406 1115.496094 C 1644.976562 1109.035156 1643.214844 1103.160156 1639.691406 1097.875 C 1639.105469 1096.113281 1637.929688 1094.9375 1637.34375 1093.175781 C 1632.054688 1084.953125 1623.832031 1079.664062 1615.023438 1079.078125 C 1605.625 1077.902344 1596.226562 1077.316406 1587.414062 1076.140625 L 1580.367188 1075.554688 C 1572.144531 1074.964844 1564.507812 1074.378906 1556.871094 1073.792969 C 1553.347656 1073.792969 1549.824219 1073.203125 1545.710938 1073.203125 C 1538.074219 1072.617188 1529.851562 1072.03125 1522.214844 1071.441406 L 1522.214844 1070.265625 C 1522.214844 1067.332031 1522.214844 1064.394531 1522.804688 1061.457031 C 1522.804688 1059.695312 1522.804688 1057.34375 1523.390625 1055.582031 L 1523.390625 1049.707031 C 1523.976562 1041.484375 1523.976562 1032.675781 1523.976562 1023.863281 C 1523.976562 1017.402344 1523.390625 1012.117188 1522.804688 1006.242188 C 1522.214844 1002.71875 1521.628906 998.605469 1520.453125 994.496094 C 1519.867188 991.558594 1518.691406 988.035156 1516.929688 983.335938 C 1515.167969 979.222656 1511.644531 973.347656 1505.769531 967.476562 C 1499.894531 962.1875 1493.433594 959.839844 1488.148438 958.078125 C 1484.625 956.902344 1481.097656 956.902344 1478.75 956.316406 L 1477.574219 956.316406 C 1468.765625 955.140625 1461.714844 955.140625 1455.839844 955.140625 L 1451.140625 955.140625 C 1442.917969 953.964844 1432.933594 953.378906 1422.359375 953.378906 Z M 1422.359375 953.378906 " fill-opacity="1" fill-rule="nonzero"/></g><g clip-path="url(#d1358b1e36)"><path fill="#545454" d="M 3442.441406 1044.636719 C 3449.492188 1044.636719 3562.761719 1047.925781 3621.980469 1042.753906 C 3637.492188 1041.34375 3653 1044.164062 3668.511719 1043.226562 C 3678.851562 1042.753906 3689.191406 1041.34375 3693.890625 1047.453125 C 3696.710938 1050.746094 3695.300781 1054.035156 3694.363281 1063.433594 C 3693.421875 1078.003906 3695.769531 1078.003906 3696.242188 1106.675781 C 3696.242188 1120.304688 3695.769531 1122.65625 3694.363281 1125.003906 C 3687.3125 1134.40625 3669.453125 1132.054688 3661.929688 1131.113281 C 3619.632812 1126.414062 3577.332031 1130.644531 3535.03125 1130.175781 C 3529.390625 1130.175781 3511.53125 1130.175781 3475.8125 1130.644531 C 3433.984375 1131.113281 3412.832031 1131.113281 3409.542969 1131.113281 C 3374.292969 1132.996094 3339.515625 1129.703125 3305.203125 1132.523438 C 3301.445312 1132.996094 3291.105469 1133.933594 3286.875 1127.824219 C 3284.054688 1124.066406 3284.996094 1119.835938 3285.464844 1113.722656 C 3286.402344 1100.566406 3284.054688 1113.253906 3284.996094 1072.363281 C 3285.464844 1052.15625 3286.402344 1049.804688 3288.285156 1047.453125 C 3294.394531 1040.875 3304.734375 1042.753906 3316.484375 1043.695312 C 3336.222656 1045.574219 3356.433594 1042.285156 3376.171875 1043.226562 C 3398.261719 1043.695312 3420.351562 1044.164062 3442.441406 1044.636719 Z M 3442.441406 1044.636719 " fill-opacity="1" fill-rule="nonzero"/></g><g clip-path="url(#04d30ca7cd)"><path fill="#545454" d="M 3442.441406 1188.453125 C 3449.492188 1188.453125 3562.761719 1191.742188 3621.980469 1186.574219 C 3637.492188 1185.164062 3653 1187.984375 3668.511719 1187.042969 C 3678.851562 1186.574219 3689.191406 1185.164062 3693.890625 1191.273438 C 3696.710938 1194.5625 3695.300781 1197.855469 3694.363281 1207.253906 C 3693.421875 1221.824219 3695.769531 1221.824219 3696.242188 1250.492188 C 3696.242188 1264.125 3695.769531 1266.472656 3694.363281 1268.824219 C 3687.3125 1278.222656 3669.453125 1275.875 3661.929688 1274.933594 C 3619.632812 1270.234375 3577.332031 1274.464844 3535.03125 1273.992188 C 3529.390625 1273.992188 3511.53125 1273.992188 3475.8125 1274.464844 C 3433.984375 1274.933594 3412.832031 1274.933594 3409.542969 1274.933594 C 3374.292969 1276.8125 3339.515625 1273.523438 3305.203125 1276.34375 C 3301.445312 1276.8125 3291.105469 1277.753906 3286.875 1271.644531 C 3284.054688 1267.882812 3284.996094 1263.652344 3285.464844 1257.542969 C 3286.402344 1244.382812 3284.054688 1257.074219 3284.996094 1216.183594 C 3285.464844 1195.972656 3286.402344 1193.625 3288.285156 1191.273438 C 3294.394531 1184.695312 3304.734375 1186.574219 3316.484375 1187.515625 C 3336.222656 1189.394531 3356.433594 1186.105469 3376.171875 1187.042969 C 3398.261719 1187.515625 3420.351562 1187.984375 3442.441406 1188.453125 Z M 3442.441406 1188.453125 " fill-opacity="1" fill-rule="nonzero"/></g><path fill="#737373" d="M 3591.902344 1055.445312 C 3596.132812 1055.445312 3600.363281 1055.914062 3604.59375 1055.445312 C 3606.941406 1055.445312 3608.820312 1055.445312 3610.703125 1054.976562 C 3612.582031 1054.976562 3614.933594 1054.976562 3616.8125 1054.035156 C 3617.75 1053.566406 3618.222656 1052.15625 3616.8125 1051.683594 C 3614.933594 1051.214844 3612.582031 1051.214844 3610.703125 1051.214844 C 3608.820312 1051.214844 3606.472656 1051.214844 3604.59375 1051.214844 C 3600.363281 1051.214844 3596.132812 1051.683594 3591.902344 1051.683594 C 3589.550781 1052.15625 3589.550781 1055.445312 3591.902344 1055.445312 Z M 3591.902344 1055.445312 " fill-opacity="1" fill-rule="nonzero"/><path fill="#737373" d="M 3627.621094 1054.976562 C 3635.140625 1054.976562 3642.660156 1055.445312 3649.710938 1054.976562 C 3656.761719 1054.976562 3664.75 1054.976562 3671.332031 1053.09375 C 3672.742188 1052.625 3672.742188 1050.273438 3671.332031 1050.273438 C 3664.28125 1048.863281 3656.761719 1049.335938 3649.710938 1049.804688 C 3642.191406 1050.273438 3634.671875 1050.746094 3627.621094 1051.214844 C 3625.273438 1051.214844 3624.800781 1054.976562 3627.621094 1054.976562 Z M 3627.621094 1054.976562 " fill-opacity="1" fill-rule="nonzero"/><path fill="#737373" d="M 3289.695312 1085.996094 C 3289.222656 1092.574219 3289.222656 1099.625 3289.222656 1106.203125 C 3289.222656 1111.375 3288.285156 1117.953125 3293.453125 1120.773438 C 3295.804688 1122.183594 3298.152344 1122.183594 3300.503906 1122.65625 C 3303.792969 1123.125 3307.085938 1123.59375 3310.375 1123.59375 C 3313.664062 1124.0625 3316.484375 1124.0625 3319.773438 1124.0625 C 3322.59375 1124.0625 3326.824219 1124.0625 3329.175781 1122.65625 C 3330.582031 1122.183594 3330.113281 1120.304688 3328.703125 1119.835938 C 3326.355469 1118.894531 3323.0625 1119.363281 3320.242188 1119.363281 C 3317.425781 1119.363281 3314.605469 1119.363281 3311.3125 1119.363281 C 3308.492188 1119.363281 3305.675781 1118.894531 3302.855469 1118.894531 C 3300.503906 1118.894531 3297.683594 1118.425781 3295.804688 1117.484375 C 3293.453125 1116.542969 3292.984375 1114.664062 3292.515625 1112.316406 C 3292.515625 1109.496094 3292.515625 1106.675781 3292.515625 1103.855469 C 3292.515625 1097.746094 3292.984375 1092.105469 3292.515625 1085.996094 C 3293.453125 1083.644531 3290.164062 1083.644531 3289.695312 1085.996094 Z M 3289.695312 1085.996094 " fill-opacity="1" fill-rule="nonzero"/><path fill="#737373" d="M 3382.285156 1200.675781 C 3392.625 1200.675781 3402.964844 1200.675781 3412.832031 1200.675781 C 3422.703125 1200.675781 3433.042969 1201.144531 3442.914062 1199.734375 C 3444.792969 1199.265625 3444.792969 1196.445312 3442.914062 1195.972656 C 3433.042969 1194.5625 3422.703125 1195.503906 3412.832031 1195.503906 C 3402.492188 1195.503906 3392.152344 1195.503906 3382.285156 1195.972656 C 3378.992188 1195.972656 3378.992188 1200.675781 3382.285156 1200.675781 Z M 3382.285156 1200.675781 " fill-opacity="1" fill-rule="nonzero"/><path fill="#737373" d="M 3559.472656 1267.414062 C 3566.523438 1267.414062 3573.570312 1267.882812 3580.152344 1267.882812 C 3587.203125 1267.882812 3593.78125 1268.351562 3600.832031 1266.945312 C 3602.242188 1266.472656 3602.242188 1264.59375 3600.832031 1264.125 C 3594.253906 1262.714844 3587.203125 1262.714844 3580.152344 1263.183594 C 3573.101562 1263.183594 3566.050781 1263.183594 3559.472656 1263.652344 C 3556.652344 1262.714844 3556.652344 1266.945312 3559.472656 1267.414062 Z M 3559.472656 1267.414062 " fill-opacity="1" fill-rule="nonzero"/><path fill="#737373" d="M 3611.171875 1265.535156 C 3616.8125 1265.535156 3621.980469 1265.535156 3627.152344 1265.535156 C 3632.320312 1265.535156 3637.960938 1265.535156 3643.132812 1264.125 C 3644.070312 1263.652344 3644.542969 1262.242188 3643.132812 1261.773438 C 3637.960938 1260.363281 3632.320312 1260.832031 3627.152344 1261.304688 C 3621.511719 1261.773438 3616.34375 1262.242188 3611.171875 1262.714844 C 3609.292969 1262.242188 3609.292969 1265.535156 3611.171875 1265.535156 Z M 3611.171875 1265.535156 " fill-opacity="1" fill-rule="nonzero"/><path fill="#ffd773" d="M 790.246094 1115.722656 C 790.246094 1120.066406 790.136719 1124.414062 789.917969 1128.753906 C 789.703125 1133.09375 789.378906 1137.429688 788.945312 1141.753906 C 788.511719 1146.082031 787.972656 1150.394531 787.324219 1154.691406 C 786.679688 1158.992188 785.921875 1163.273438 785.0625 1167.535156 C 784.203125 1171.800781 783.234375 1176.039062 782.164062 1180.257812 C 781.089844 1184.472656 779.914062 1188.660156 778.632812 1192.820312 C 777.351562 1196.980469 775.964844 1201.105469 774.480469 1205.199219 C 772.992188 1209.292969 771.40625 1213.34375 769.714844 1217.359375 C 768.027344 1221.378906 766.238281 1225.351562 764.351562 1229.277344 C 762.464844 1233.207031 760.480469 1237.089844 758.398438 1240.921875 C 756.320312 1244.757812 754.144531 1248.539062 751.875 1252.265625 C 749.605469 1255.992188 747.246094 1259.664062 744.792969 1263.28125 C 742.339844 1266.894531 739.800781 1270.445312 737.171875 1273.9375 C 734.542969 1277.429688 731.828125 1280.855469 729.027344 1284.214844 C 726.226562 1287.574219 723.34375 1290.863281 720.378906 1294.085938 C 717.417969 1297.304688 714.375 1300.453125 711.253906 1303.527344 C 708.132812 1306.601562 704.9375 1309.597656 701.664062 1312.515625 C 698.394531 1315.433594 695.054688 1318.273438 691.640625 1321.03125 C 688.230469 1323.789062 684.75 1326.460938 681.207031 1329.050781 C 677.660156 1331.640625 674.054688 1334.144531 670.382812 1336.558594 C 666.714844 1338.972656 662.984375 1341.296875 659.199219 1343.53125 C 655.414062 1345.765625 651.574219 1347.910156 647.683594 1349.957031 C 643.789062 1352.007812 639.847656 1353.960938 635.859375 1355.820312 C 631.867188 1357.675781 627.835938 1359.4375 623.757812 1361.101562 C 619.679688 1362.765625 615.5625 1364.328125 611.40625 1365.792969 C 607.25 1367.257812 603.0625 1368.621094 598.835938 1369.882812 C 594.613281 1371.144531 590.359375 1372.304688 586.078125 1373.359375 C 581.796875 1374.414062 577.492188 1375.367188 573.164062 1376.214844 C 568.835938 1377.0625 564.488281 1377.804688 560.121094 1378.445312 C 555.753906 1379.082031 551.375 1379.613281 546.984375 1380.039062 C 542.589844 1380.464844 538.191406 1380.785156 533.78125 1381 C 529.375 1381.210938 524.964844 1381.320312 520.550781 1381.320312 C 516.136719 1381.320312 511.722656 1381.210938 507.316406 1381 C 502.90625 1380.785156 498.507812 1380.464844 494.113281 1380.039062 C 489.722656 1379.613281 485.34375 1379.082031 480.976562 1378.445312 C 476.609375 1377.804688 472.261719 1377.0625 467.933594 1376.214844 C 463.605469 1375.367188 459.300781 1374.414062 455.019531 1373.359375 C 450.738281 1372.304688 446.484375 1371.144531 442.261719 1369.882812 C 438.035156 1368.621094 433.847656 1367.257812 429.691406 1365.792969 C 425.535156 1364.328125 421.417969 1362.765625 417.339844 1361.101562 C 413.261719 1359.4375 409.230469 1357.675781 405.238281 1355.820312 C 401.25 1353.960938 397.308594 1352.007812 393.414062 1349.957031 C 389.523438 1347.910156 385.683594 1345.765625 381.898438 1343.53125 C 378.113281 1341.296875 374.382812 1338.972656 370.714844 1336.558594 C 367.042969 1334.144531 363.4375 1331.640625 359.890625 1329.050781 C 356.347656 1326.460938 352.867188 1323.789062 349.457031 1321.03125 C 346.042969 1318.273438 342.703125 1315.433594 339.433594 1312.515625 C 336.164062 1309.597656 332.964844 1306.601562 329.84375 1303.527344 C 326.726562 1300.453125 323.683594 1297.304688 320.71875 1294.085938 C 317.753906 1290.863281 314.871094 1287.574219 312.070312 1284.214844 C 309.273438 1280.855469 306.558594 1277.429688 303.925781 1273.9375 C 301.296875 1270.445312 298.757812 1266.894531 296.304688 1263.28125 C 293.851562 1259.664062 291.492188 1255.992188 289.222656 1252.265625 C 286.953125 1248.539062 284.78125 1244.757812 282.699219 1240.921875 C 280.617188 1237.089844 278.632812 1233.207031 276.746094 1229.277344 C 274.859375 1225.351562 273.070312 1221.378906 271.382812 1217.359375 C 269.695312 1213.34375 268.105469 1209.292969 266.617188 1205.199219 C 265.132812 1201.105469 263.746094 1196.980469 262.464844 1192.820312 C 261.183594 1188.660156 260.007812 1184.472656 258.9375 1180.257812 C 257.863281 1176.039062 256.898438 1171.800781 256.035156 1167.535156 C 255.175781 1163.273438 254.421875 1158.992188 253.773438 1154.691406 C 253.125 1150.394531 252.585938 1146.082031 252.152344 1141.753906 C 251.71875 1137.429688 251.394531 1133.09375 251.179688 1128.753906 C 250.960938 1124.414062 250.855469 1120.066406 250.855469 1115.722656 C 250.855469 1111.375 250.960938 1107.03125 251.179688 1102.6875 C 251.394531 1098.347656 251.71875 1094.015625 252.152344 1089.6875 C 252.585938 1085.363281 253.125 1081.050781 253.773438 1076.75 C 254.421875 1072.449219 255.175781 1068.167969 256.035156 1063.90625 C 256.898438 1059.644531 257.863281 1055.402344 258.9375 1051.1875 C 260.007812 1046.96875 261.183594 1042.78125 262.464844 1038.621094 C 263.746094 1034.464844 265.132812 1030.335938 266.617188 1026.246094 C 268.105469 1022.152344 269.695312 1018.097656 271.382812 1014.082031 C 273.070312 1010.066406 274.859375 1006.09375 276.746094 1002.164062 C 278.632812 998.234375 280.617188 994.351562 282.699219 990.519531 C 284.78125 986.6875 286.953125 982.90625 289.222656 979.175781 C 291.492188 975.449219 293.851562 971.777344 296.304688 968.164062 C 298.757812 964.550781 301.296875 960.996094 303.925781 957.503906 C 306.558594 954.015625 309.273438 950.589844 312.070312 947.226562 C 314.871094 943.867188 317.753906 940.578125 320.71875 937.355469 C 323.683594 934.136719 326.726562 930.988281 329.84375 927.914062 C 332.964844 924.84375 336.164062 921.847656 339.433594 918.925781 C 342.703125 916.007812 346.042969 913.167969 349.457031 910.414062 C 352.867188 907.65625 356.347656 904.980469 359.890625 902.390625 C 363.4375 899.800781 367.042969 897.300781 370.714844 894.886719 C 374.382812 892.46875 378.113281 890.144531 381.898438 887.910156 C 385.683594 885.675781 389.523438 883.535156 393.414062 881.484375 C 397.308594 879.4375 401.25 877.484375 405.238281 875.625 C 409.230469 873.765625 413.261719 872.003906 417.339844 870.339844 C 421.417969 868.679688 425.535156 867.113281 429.691406 865.648438 C 433.847656 864.1875 438.035156 862.824219 442.261719 861.5625 C 446.484375 860.300781 450.738281 859.140625 455.019531 858.082031 C 459.300781 857.027344 463.605469 856.074219 467.933594 855.226562 C 472.261719 854.378906 476.609375 853.636719 480.976562 853 C 485.34375 852.359375 489.722656 851.828125 494.113281 851.402344 C 498.507812 850.976562 502.90625 850.65625 507.316406 850.445312 C 511.722656 850.230469 516.136719 850.125 520.550781 850.125 C 524.964844 850.125 529.375 850.230469 533.78125 850.445312 C 538.191406 850.65625 542.589844 850.976562 546.984375 851.402344 C 551.375 851.828125 555.753906 852.359375 560.121094 853 C 564.488281 853.636719 568.835938 854.378906 573.164062 855.226562 C 577.492188 856.074219 581.796875 857.027344 586.078125 858.082031 C 590.359375 859.140625 594.613281 860.300781 598.835938 861.5625 C 603.0625 862.824219 607.25 864.1875 611.40625 865.648438 C 615.5625 867.113281 619.679688 868.679688 623.757812 870.339844 C 627.835938 872.003906 631.867188 873.765625 635.859375 875.625 C 639.847656 877.484375 643.789062 879.4375 647.683594 881.484375 C 651.574219 883.535156 655.414062 885.675781 659.199219 887.910156 C 662.984375 890.144531 666.714844 892.46875 670.382812 894.886719 C 674.054688 897.300781 677.660156 899.800781 681.207031 902.390625 C 684.75 904.980469 688.230469 907.65625 691.640625 910.414062 C 695.054688 913.167969 698.394531 916.007812 701.664062 918.925781 C 704.9375 921.847656 708.132812 924.84375 711.253906 927.914062 C 714.375 930.988281 717.417969 934.136719 720.378906 937.355469 C 723.34375 940.578125 726.226562 943.867188 729.027344 947.226562 C 731.828125 950.589844 734.542969 954.015625 737.171875 957.503906 C 739.800781 960.996094 742.339844 964.550781 744.792969 968.164062 C 747.246094 971.777344 749.605469 975.449219 751.875 979.175781 C 754.144531 982.90625 756.320312 986.6875 758.398438 990.519531 C 760.480469 994.351562 762.464844 998.234375 764.351562 1002.164062 C 766.238281 1006.09375 768.027344 1010.066406 769.714844 1014.082031 C 771.40625 1018.097656 772.992188 1022.152344 774.480469 1026.246094 C 775.964844 1030.335938 777.351562 1034.464844 778.632812 1038.621094 C 779.914062 1042.78125 781.089844 1046.96875 782.164062 1051.1875 C 783.234375 1055.402344 784.203125 1059.644531 785.0625 1063.90625 C 785.921875 1068.167969 786.679688 1072.449219 787.324219 1076.75 C 787.972656 1081.050781 788.511719 1085.363281 788.945312 1089.6875 C 789.378906 1094.015625 789.703125 1098.347656 789.917969 1102.6875 C 790.136719 1107.03125 790.246094 1111.375 790.246094 1115.722656 Z M 790.246094 1115.722656 " fill-opacity="1" fill-rule="nonzero"/><g clip-path="url(#b20a9f2e73)"><path fill="#d1a12a" d="M 520.550781 784.285156 C 512.707031 784.285156 506.546875 778.121094 506.546875 770.277344 L 506.546875 618.425781 C 506.546875 610.582031 512.707031 604.417969 520.550781 604.417969 C 528.390625 604.417969 534.550781 610.582031 534.550781 618.425781 L 534.550781 770.277344 C 534.550781 777.839844 528.109375 784.285156 520.550781 784.285156 Z M 534.550781 1613.015625 L 534.550781 1461.167969 C 534.550781 1453.320312 528.390625 1447.15625 520.550781 1447.15625 C 512.707031 1447.15625 506.546875 1453.320312 506.546875 1461.167969 L 506.546875 1613.015625 C 506.546875 1620.859375 512.707031 1627.023438 520.550781 1627.023438 C 528.390625 1627.023438 534.550781 1620.859375 534.550781 1613.015625 Z M 183.359375 1115.722656 C 183.359375 1107.878906 177.199219 1101.714844 169.355469 1101.714844 L 15.324219 1101.714844 C 7.484375 1101.714844 1.324219 1107.878906 1.324219 1115.722656 C 1.324219 1123.566406 7.484375 1129.730469 15.324219 1129.730469 L 169.355469 1129.730469 C 177.199219 1129.730469 183.359375 1123.566406 183.359375 1115.722656 Z M 1039.777344 1115.722656 C 1039.777344 1107.878906 1033.613281 1101.714844 1025.773438 1101.714844 L 871.742188 1101.714844 C 863.898438 1101.714844 857.738281 1107.878906 857.738281 1115.722656 C 857.738281 1123.566406 863.898438 1129.730469 871.742188 1129.730469 L 1025.773438 1129.730469 C 1033.613281 1129.730469 1039.777344 1123.566406 1039.777344 1115.722656 Z M 282.21875 881.222656 C 287.542969 875.621094 287.542969 866.933594 281.941406 861.332031 L 172.996094 754.027344 C 167.398438 748.703125 158.714844 748.703125 153.113281 754.308594 C 147.792969 759.910156 147.792969 768.597656 153.394531 774.199219 L 262.335938 881.503906 C 265.136719 884.304688 268.496094 885.425781 272.136719 885.425781 C 275.777344 885.425781 279.417969 884.023438 282.21875 881.222656 Z M 887.703125 1477.414062 C 893.027344 1471.8125 893.027344 1463.128906 887.425781 1457.523438 L 778.480469 1350.21875 C 772.882812 1344.898438 764.199219 1344.898438 758.597656 1350.5 C 753.277344 1356.105469 753.277344 1364.789062 758.878906 1370.390625 L 867.820312 1477.695312 C 870.621094 1480.496094 873.980469 1481.617188 877.621094 1481.617188 C 881.261719 1481.617188 884.902344 1480.21875 887.703125 1477.414062 Z M 172.996094 1477.414062 L 281.941406 1370.113281 C 287.542969 1364.789062 287.542969 1355.824219 282.21875 1350.21875 C 276.898438 1344.617188 267.9375 1344.617188 262.335938 1349.941406 L 153.394531 1457.523438 C 147.792969 1462.847656 147.792969 1471.8125 153.113281 1477.414062 C 155.914062 1480.21875 159.554688 1481.617188 163.195312 1481.617188 C 166.835938 1481.617188 170.195312 1480.21875 172.996094 1477.414062 Z M 778.480469 881.503906 L 887.425781 774.199219 C 893.027344 768.875 893.027344 759.910156 887.703125 754.308594 C 882.382812 748.703125 873.421875 748.703125 867.820312 754.027344 L 758.878906 861.332031 C 753.277344 866.652344 753.277344 875.621094 758.597656 881.222656 C 761.398438 884.023438 765.039062 885.425781 768.679688 885.425781 C 772.320312 885.425781 775.960938 884.023438 778.480469 881.503906 Z M 391.164062 808.660156 C 398.164062 805.578125 401.523438 797.453125 398.722656 790.449219 L 371.277344 725.171875 C 368.199219 718.167969 360.074219 714.804688 352.792969 717.605469 C 345.792969 720.6875 342.433594 728.8125 345.234375 735.816406 L 372.679688 801.09375 C 374.917969 806.417969 380.242188 809.78125 385.5625 809.78125 C 387.800781 809.78125 389.480469 809.5 391.164062 808.660156 Z M 688.023438 1514.117188 C 695.023438 1511.035156 698.386719 1502.910156 695.585938 1495.90625 L 668.140625 1430.628906 C 665.058594 1423.625 656.9375 1420.261719 649.65625 1423.0625 C 642.652344 1426.144531 639.292969 1434.269531 642.09375 1441.273438 L 669.539062 1506.554688 C 671.78125 1511.875 677.101562 1515.238281 682.421875 1515.238281 C 684.382812 1515.238281 686.34375 1514.679688 688.023438 1514.117188 Z M 134.351562 1288.304688 L 200.722656 1261.128906 C 208.003906 1258.324219 211.367188 1249.921875 208.285156 1242.917969 C 205.484375 1235.632812 197.082031 1232.269531 190.082031 1235.351562 L 123.707031 1262.527344 C 116.425781 1265.332031 113.066406 1273.734375 116.144531 1280.738281 C 118.386719 1286.0625 123.707031 1289.425781 129.027344 1289.425781 C 130.710938 1289.425781 132.667969 1289.144531 134.351562 1288.304688 Z M 850.738281 996.371094 L 917.109375 969.195312 C 924.390625 966.394531 927.753906 957.988281 924.671875 950.984375 C 921.871094 943.699219 913.46875 940.335938 906.46875 943.417969 L 840.09375 970.59375 C 832.8125 973.398438 829.453125 981.800781 832.535156 988.804688 C 834.773438 994.128906 840.09375 997.492188 845.414062 997.492188 C 847.375 997.210938 849.054688 996.929688 850.738281 996.371094 Z M 668.140625 801.375 L 695.585938 736.097656 C 698.664062 729.09375 695.304688 720.6875 688.023438 717.886719 C 680.742188 714.804688 672.621094 718.167969 669.539062 725.449219 L 642.09375 790.730469 C 639.011719 797.734375 642.375 806.136719 649.65625 808.941406 C 651.335938 809.78125 653.296875 810.0625 654.976562 810.0625 C 660.578125 809.78125 665.898438 806.699219 668.140625 801.375 Z M 371.277344 1506.554688 L 398.722656 1441.273438 C 401.804688 1434.269531 398.445312 1425.863281 391.164062 1423.0625 C 383.882812 1419.980469 375.757812 1423.34375 372.679688 1430.628906 L 345.234375 1495.90625 C 342.152344 1502.910156 345.511719 1511.316406 352.792969 1514.117188 C 354.476562 1514.957031 356.433594 1515.238281 358.117188 1515.238281 C 363.71875 1515.238281 369.039062 1511.875 371.277344 1506.554688 Z M 208.566406 988.527344 C 211.367188 981.242188 208.003906 973.117188 201.003906 970.316406 L 134.628906 943.140625 C 127.347656 940.335938 119.226562 943.699219 116.425781 950.703125 C 113.625 957.988281 116.984375 966.113281 123.988281 968.914062 L 190.359375 996.089844 C 192.042969 996.929688 194.003906 997.210938 195.683594 997.210938 C 201.003906 997.210938 206.324219 993.847656 208.566406 988.527344 Z M 924.953125 1280.738281 C 927.753906 1273.453125 924.390625 1265.332031 917.390625 1262.527344 L 850.738281 1235.351562 C 843.457031 1232.550781 835.332031 1235.914062 832.535156 1242.917969 C 829.734375 1250.203125 833.09375 1258.324219 840.09375 1261.128906 L 906.46875 1288.304688 C 908.148438 1289.144531 910.109375 1289.425781 911.789062 1289.425781 C 917.390625 1289.425781 922.710938 1286.0625 924.953125 1280.738281 Z M 924.953125 1280.738281 " fill-opacity="1" fill-rule="nonzero"/></g><g clip-path="url(#7938368482)"><path fill="#7eccf7" d="M 2032.050781 975.792969 C 2055.917969 975.792969 2078.566406 980.472656 2099.433594 988.894531 C 2119.183594 911.589844 2189.375 854.410156 2272.855469 854.410156 C 2308.699219 854.410156 2342.113281 864.984375 2370.09375 883.140625 C 2402.101562 794.980469 2486.707031 731.902344 2586.003906 731.902344 C 2708.417969 731.902344 2808.464844 827.640625 2815.296875 948.371094 C 2838.132812 940.699219 2862.558594 936.578125 2888.015625 936.578125 C 3014.921875 936.578125 3117.777344 1039.433594 3117.777344 1166.246094 C 3117.777344 1293.058594 3014.921875 1395.914062 2888.109375 1395.914062 C 2854.042969 1395.914062 2821.753906 1388.425781 2792.742188 1375.136719 C 2745.667969 1449.632812 2662.652344 1499.238281 2568.035156 1499.238281 C 2484.085938 1499.238281 2409.214844 1460.210938 2360.550781 1399.378906 C 2334.0625 1425.675781 2297.65625 1441.867188 2257.414062 1441.867188 C 2183.011719 1441.867188 2121.710938 1386.460938 2112.257812 1314.679688 C 2088.109375 1326.753906 2060.878906 1333.679688 2032.050781 1333.679688 C 1933.222656 1333.679688 1853.109375 1253.566406 1853.109375 1154.734375 C 1853.109375 1055.90625 1933.222656 975.792969 2032.050781 975.792969 Z M 2032.050781 975.792969 " fill-opacity="1" fill-rule="nonzero"/></g><g clip-path="url(#7405fdc181)"><path fill="#a6a6a6" d="M 4041.65625 975.792969 C 4065.519531 975.792969 4088.167969 980.472656 4109.039062 988.894531 C 4128.785156 911.589844 4198.976562 854.410156 4282.457031 854.410156 C 4318.304688 854.410156 4351.714844 864.984375 4379.699219 883.140625 C 4411.707031 794.980469 4496.308594 731.902344 4595.609375 731.902344 C 4718.023438 731.902344 4818.070312 827.640625 4824.902344 948.371094 C 4847.734375 940.699219 4872.164062 936.578125 4897.617188 936.578125 C 5024.527344 936.578125 5127.378906 1039.433594 5127.378906 1166.246094 C 5127.378906 1293.058594 5024.527344 1395.914062 4897.710938 1395.914062 C 4863.644531 1395.914062 4831.359375 1388.425781 4802.34375 1375.136719 C 4755.269531 1449.632812 4672.257812 1499.238281 4577.636719 1499.238281 C 4493.6875 1499.238281 4418.816406 1460.210938 4370.152344 1399.378906 C 4343.664062 1425.675781 4307.261719 1441.867188 4267.015625 1441.867188 C 4192.613281 1441.867188 4131.3125 1386.460938 4121.859375 1314.679688 C 4097.714844 1326.753906 4070.480469 1333.679688 4041.65625 1333.679688 C 3942.824219 1333.679688 3862.710938 1253.566406 3862.710938 1154.734375 C 3862.710938 1055.90625 3942.824219 975.792969 4041.65625 975.792969 Z M 4041.65625 975.792969 " fill-opacity="1" fill-rule="nonzero"/></g><g fill="#ffffff" fill-opacity="1"><g transform="translate(1962.553536, 1176.54305)"><g><path d="M 37.5625 0.859375 L 42.96875 1.296875 L 50.515625 0.75 L 56.890625 -0.546875 L 58.828125 -1.625 L 61.09375 -2.375 L 62.9375 -3.234375 L 68.21875 -7.015625 L 71.25 -10.046875 L 73.734375 -13.28125 L 76 -17.171875 L 78.8125 -25.375 L 78.15625 -27.3125 L 76 -28.71875 L 69.953125 -28.28125 L 67.796875 -28.609375 L 65.640625 -28.5 L 63.46875 -28.609375 L 61 -27.3125 L 59.265625 -25.578125 L 58.1875 -23.53125 L 55.703125 -20.734375 L 53.96875 -19.21875 L 52.359375 -18.5625 L 48.578125 -16.515625 L 42.859375 -16.1875 L 39.734375 -16.515625 L 35.84375 -17.921875 L 32.0625 -19.859375 L 28.9375 -22.671875 L 26.5625 -26.453125 L 25.796875 -28.609375 L 25.046875 -30.125 L 24.5 -32.0625 L 24.1875 -34.4375 L 24.1875 -41.015625 L 24.9375 -45.34375 L 26.5625 -49.234375 L 27.640625 -51.28125 L 30.234375 -54.296875 L 32.8125 -56.34375 L 35.734375 -57.96875 L 42.96875 -58.9375 L 47.609375 -58.71875 L 50.953125 -57.75 L 52.890625 -57 L 54.40625 -55.8125 L 57.53125 -52.6875 L 58.71875 -51.0625 L 60.78125 -49.015625 L 63.265625 -47.828125 L 65.203125 -48.046875 L 67.46875 -47.9375 L 69.625 -48.046875 L 72.65625 -47.71875 L 75.890625 -48.046875 L 77.71875 -48.90625 L 78.484375 -51.0625 L 77.828125 -53.4375 L 77.078125 -55.375 L 76.4375 -57.640625 L 75.25 -59.375 L 74.265625 -61.09375 L 72.765625 -62.9375 L 71.578125 -64.984375 L 68.546875 -68.125 L 61.203125 -72.765625 L 50.84375 -76.21875 L 48.796875 -76.328125 L 46.640625 -76.640625 L 39.9375 -76.75 L 29.46875 -74.703125 L 21.484375 -70.921875 L 18.359375 -68.546875 L 13.703125 -64.34375 L 10.796875 -60.671875 L 8.75 -57.53125 L 6.046875 -51.5 L 4.96875 -47.0625 L 3.890625 -37.78125 L 4.53125 -29.90625 L 6.046875 -23.75 L 10.6875 -14.359375 L 15.109375 -9.609375 L 19.96875 -5.390625 L 24.609375 -2.921875 L 29.46875 -0.859375 L 31.421875 -0.4375 L 33.578125 0.328125 L 35.515625 0.75 Z M 37.5625 0.859375 "/></g></g></g><g fill="#ffffff" fill-opacity="1"><g transform="translate(2044.925783, 1176.54305)"><g><path d="M 1.40625 -2.921875 L 1.9375 -0.640625 L 4.109375 -0.109375 L 13.609375 -0.109375 L 16.40625 0.21875 L 18.890625 -0.859375 L 20.828125 -2.8125 L 22.671875 -6.484375 L 24.5 -8.53125 L 27.09375 -9.609375 L 29.25 -9.390625 L 35.296875 -9.5 L 37.5625 -9.171875 L 40.046875 -9.5 L 42 -9.5 L 44.265625 -9.28125 L 49.328125 -9.5 L 52.890625 -8.3125 L 55.15625 -6.578125 L 55.703125 -4.640625 L 56.890625 -2.703125 L 58.71875 -0.96875 L 61.53125 0.109375 L 63.46875 -0.109375 L 67.25 0.21875 L 73.953125 0 L 75.890625 -0.640625 L 76.328125 -2.921875 L 75.671875 -5.609375 L 74.921875 -7.5625 L 73.515625 -9.390625 L 72.875 -11.546875 L 71.78125 -13.171875 L 71.140625 -15.21875 L 69.3125 -19.109375 L 68.546875 -21.15625 L 67.46875 -23 L 65.953125 -26.984375 L 64.765625 -28.71875 L 63.90625 -30.875 L 62.9375 -32.703125 L 62.1875 -34.875 L 61.203125 -36.484375 L 60.5625 -38.640625 L 59.375 -40.59375 L 58.515625 -42.421875 L 57.4375 -44.265625 L 56.890625 -46.3125 L 54.734375 -50.09375 L 54.078125 -52.140625 L 52.140625 -56.25 L 51.609375 -57.96875 L 49.984375 -61.75 L 47.828125 -65.75 L 46.09375 -69.84375 L 45.125 -71.46875 L 44.484375 -73.515625 L 42.53125 -75.5625 L 38.859375 -76.53125 L 35.40625 -75.453125 L 33.359375 -73.515625 L 32.703125 -71.578125 L 28.0625 -61.859375 L 26.875 -59.90625 L 20.828125 -46.3125 L 20.296875 -44.484375 L 19.109375 -42.53125 L 17.375 -38.640625 L 15.765625 -35.84375 L 15 -33.796875 L 13.5 -30.984375 L 12.84375 -28.71875 L 11.875 -26.984375 L 11.125 -24.828125 L 8.09375 -19.21875 L 4.96875 -11.328125 L 3.671875 -9.609375 L 2.703125 -7.453125 Z M 34.765625 -26.671875 L 32.703125 -27.53125 L 32.390625 -29.6875 L 36.703125 -39.515625 L 37.671875 -41.234375 L 39.078125 -42.3125 L 40.375 -41.453125 L 41.78125 -37.25 L 42.96875 -35.40625 L 43.390625 -33.6875 L 44.484375 -31.515625 L 45.234375 -29.578125 L 45.015625 -27.640625 L 43.1875 -26.765625 Z M 34.765625 -26.671875 "/></g></g></g><g fill="#ffffff" fill-opacity="1"><g transform="translate(2123.303569, 1176.54305)"><g><path d="M 8.3125 -3.453125 L 9.0625 -1.078125 L 11.234375 0 L 13.28125 0.109375 L 17.703125 -0.21875 L 19.96875 0 L 23.203125 0 L 26.5625 -1.078125 L 27.3125 -3.125 L 27.53125 -5.390625 L 27.09375 -7.671875 L 27.421875 -12.3125 L 27.203125 -19 L 28.171875 -21.15625 L 30.328125 -22.234375 L 32.28125 -22.234375 L 34.21875 -22.34375 L 36.921875 -21.484375 L 38.640625 -19.640625 L 41.453125 -15.875 L 42.203125 -13.8125 L 45.234375 -8.421875 L 46.640625 -6.375 L 47.609375 -4.53125 L 48.90625 -2.8125 L 51.0625 -0.859375 L 53.765625 -0.21875 L 57.640625 0 L 60.015625 -0.21875 L 62.1875 0 L 66.5 0 L 68.875 -0.21875 L 71.140625 -0.75 L 71.578125 -3.015625 L 70.171875 -5.71875 L 66.71875 -11.015625 L 65.75 -12.84375 L 64.453125 -14.796875 L 63.375 -16.734375 L 61.96875 -18.453125 L 58.71875 -24.078125 L 58.40625 -26.671875 L 59.59375 -28.9375 L 62.609375 -31.84375 L 63.90625 -33.6875 L 64.65625 -35.734375 L 65.84375 -37.671875 L 66.609375 -39.515625 L 67.796875 -43.609375 L 67.90625 -52.140625 L 67.359375 -54.1875 L 67.03125 -56.25 L 66.5 -58.40625 L 63.578125 -64.34375 L 62.078125 -65.953125 L 61.09375 -67.578125 L 55.703125 -71.6875 L 51.921875 -73.625 L 42.96875 -75.453125 L 40.265625 -75.671875 L 37.140625 -75.5625 L 34.765625 -75.671875 L 32.609375 -75.453125 L 30.234375 -75.671875 L 28.390625 -75.453125 L 21.921875 -75.671875 L 19.859375 -75.34375 L 15.4375 -75.78125 L 13.390625 -75.453125 L 11.015625 -75.5625 L 8.953125 -74.59375 L 8.09375 -72.328125 L 7.765625 -42.109375 L 8.09375 -38.96875 L 8.09375 -33.578125 L 7.875 -31.3125 L 7.765625 -27.203125 L 8.09375 -24.828125 L 7.765625 -20.40625 L 8.203125 -14.140625 L 7.984375 -11.875 Z M 30.328125 -39.734375 L 28.5 -40.703125 L 27.421875 -42.96875 L 27.09375 -55.0625 L 28.390625 -57.21875 L 30.546875 -58.296875 L 32.28125 -58.40625 L 38.21875 -58.296875 L 43.1875 -57.640625 L 46.53125 -55.59375 L 47.609375 -53.96875 L 48.359375 -52.25 L 48.578125 -49.125 L 48.25 -46.203125 L 47.390625 -44.046875 L 46.203125 -42.203125 L 44.90625 -40.921875 L 43.296875 -40.15625 L 34.875 -39.40625 L 32.703125 -39.734375 Z M 30.328125 -39.734375 "/></g></g></g><g fill="#ffffff" fill-opacity="1"><g transform="translate(2198.118742, 1176.54305)"><g><path d="M 7.875 -3.234375 L 9.0625 -0.75 L 11.125 0.21875 L 46.859375 -0.21875 L 50.953125 -0.75 L 54.515625 -2.15625 L 58.625 -4.53125 L 60.015625 -5.609375 L 61.75 -7.234375 L 64.234375 -10.796875 L 65.203125 -12.84375 L 65.640625 -14.6875 L 66.5 -16.84375 L 66.609375 -25.484375 L 66.171875 -27.53125 L 65.421875 -29.796875 L 63.46875 -33.578125 L 61.96875 -35.40625 L 60.34375 -37.03125 L 59.375 -39.40625 L 59.8125 -41.5625 L 61 -43.71875 L 62.28125 -45.5625 L 63.796875 -53.328125 L 63.6875 -56.453125 L 62.5 -60.453125 L 61.421875 -62.5 L 60.78125 -64.5625 L 58.1875 -68.015625 L 56.671875 -69.515625 L 53.4375 -71.78125 L 49.4375 -73.953125 L 43.390625 -75.34375 L 10.90625 -75.5625 L 8.75 -74.59375 L 7.765625 -72.328125 L 7.984375 -67.6875 L 7.765625 -64.5625 L 8.203125 -57.328125 L 7.875 -55.0625 L 8.09375 -52.78125 L 7.875 -50.734375 L 7.984375 -48.46875 L 7.765625 -46.421875 L 7.765625 -37.78125 L 8.09375 -35.515625 L 7.875 -33.46875 L 7.875 -29.140625 L 8.09375 -27.09375 L 7.875 -18.25 L 8.203125 -13.8125 L 7.765625 -7.34375 Z M 30.015625 -46.3125 L 27.421875 -47.171875 L 26.34375 -49.328125 L 26.765625 -51.171875 L 26.765625 -53.21875 L 26.5625 -55.265625 L 27.75 -57.109375 L 30.015625 -58.296875 L 37.78125 -57.96875 L 41.125 -57.328125 L 42.421875 -56.453125 L 43.828125 -54.953125 L 44.15625 -52.03125 L 43.609375 -48.796875 L 41.78125 -47.0625 L 38.109375 -46.3125 Z M 29.6875 -17.171875 L 27.859375 -18.03125 L 26.671875 -20.296875 L 26.765625 -22.125 L 26.5625 -24.1875 L 26.671875 -26.34375 L 27.421875 -28.28125 L 29.578125 -29.359375 L 41.015625 -29.359375 L 44.046875 -28.828125 L 45.671875 -27.640625 L 47.28125 -26.125 L 47.5 -23.109375 L 47.28125 -20.296875 L 45.875 -18.78125 L 43.9375 -17.59375 L 38.109375 -17.0625 Z M 29.6875 -17.171875 "/></g></g></g><g fill="#ffffff" fill-opacity="1"><g transform="translate(2269.371279, 1176.54305)"><g><path d="M 40.375 1.296875 L 46.421875 1.1875 L 52.890625 0.328125 L 61 -2.375 L 64.5625 -4.3125 L 66.171875 -5.609375 L 68.21875 -6.578125 L 71.25 -9.171875 L 72.65625 -11.125 L 74.15625 -12.625 L 78.90625 -19.859375 L 80.53125 -23.96875 L 81.390625 -28.0625 L 81.5 -30.015625 L 82.046875 -32.171875 L 82.15625 -34.4375 L 82.578125 -37.5625 L 82.265625 -42.96875 L 81.5 -47.390625 L 78.8125 -55.484375 L 76.75 -59.484375 L 74.375 -62.71875 L 71.359375 -66.0625 L 68.21875 -68.765625 L 65.75 -70.5 L 62.5 -71.890625 L 60.890625 -73.078125 L 52.578125 -75.671875 L 46.3125 -76.75 L 43.390625 -76.859375 L 31.953125 -75.25 L 23.859375 -72.21875 L 22.234375 -71.03125 L 20.296875 -70.0625 L 16.625 -67.359375 L 11.328125 -61.203125 L 7.984375 -55.484375 L 6.375 -51.390625 L 4.53125 -43.078125 L 4.203125 -34.328125 L 4.53125 -32.0625 L 5.078125 -30.125 L 5.296875 -28.0625 L 6.265625 -23.96875 L 11.234375 -14.140625 L 12.515625 -12.84375 L 13.921875 -11.125 L 15.546875 -9.609375 L 16.734375 -8.203125 L 20.296875 -5.390625 L 28.71875 -1.078125 L 31.84375 0 L 34.21875 0.21875 L 38.109375 1.078125 Z M 46.421875 -17.8125 L 40.484375 -17.8125 L 38.109375 -18.140625 L 34.21875 -19.75 L 32.5 -20.734375 L 29.578125 -23.109375 L 28.171875 -24.609375 L 26.671875 -26.671875 L 26.125 -28.390625 L 25.15625 -30.328125 L 24.296875 -34.328125 L 24.296875 -40.921875 L 24.828125 -42.859375 L 25.15625 -44.90625 L 26.015625 -46.859375 L 26.671875 -48.796875 L 29.25 -52.25 L 34.65625 -55.921875 L 36.0625 -56.453125 L 40.265625 -57.53125 L 43.296875 -57.75 L 48.46875 -57.109375 L 50.421875 -56.671875 L 52.359375 -55.8125 L 55.703125 -53.4375 L 59.90625 -49.015625 L 61.203125 -44.90625 L 62.1875 -42.859375 L 62.5 -40.921875 L 62.28125 -34.328125 L 61.421875 -30.328125 L 60.671875 -28.390625 L 59.484375 -26.453125 L 58.828125 -24.828125 L 57.328125 -23.109375 L 52.140625 -19.546875 L 50.203125 -19 L 48.578125 -18.25 Z M 46.421875 -17.8125 "/></g></g></g><g fill="#ffffff" fill-opacity="1"><g transform="translate(2355.953899, 1176.54305)"><g><path d="M 63.6875 -1.734375 L 66.828125 -0.328125 L 69.625 0.546875 L 72.109375 -0.640625 L 73.078125 -2.921875 L 73.625 -32.28125 L 73.1875 -35.296875 L 73.40625 -37.671875 L 72.96875 -50.625 L 73.296875 -54.953125 L 73.078125 -57 L 73.078125 -61.3125 L 73.515625 -63.46875 L 73.296875 -66.71875 L 73.515625 -72.328125 L 72.21875 -74.265625 L 69.84375 -75.34375 L 67.6875 -75.5625 L 65.640625 -75.5625 L 63.265625 -75.34375 L 61 -75.671875 L 59.046875 -75.453125 L 56.890625 -75.5625 L 54.296875 -74.484375 L 53.21875 -72.21875 L 53.109375 -52.578125 L 53.546875 -50.3125 L 53.546875 -48.25 L 53.109375 -45.984375 L 53.21875 -41.671875 L 52.6875 -39.9375 L 51.171875 -40.375 L 46.421875 -45.234375 L 44.796875 -46.53125 L 41.015625 -50.421875 L 39.296875 -51.703125 L 38.109375 -53.21875 L 35.84375 -55.59375 L 32.5 -58.40625 L 31.3125 -60.015625 L 29.25 -61.421875 L 28.171875 -63.046875 L 26.34375 -64.34375 L 24.9375 -66.171875 L 19.109375 -72.109375 L 14.796875 -75.03125 L 11.875 -75.890625 L 9.28125 -74.59375 L 7.875 -72.546875 L 8.09375 -57.4375 L 7.875 -55.265625 L 8.203125 -50.84375 L 7.984375 -48.90625 L 8.09375 -46.640625 L 7.765625 -44.375 L 8.203125 -28.9375 L 7.984375 -26.984375 L 7.984375 -24.9375 L 7.765625 -22.5625 L 7.765625 -20.515625 L 8.09375 -18.25 L 7.984375 -13.8125 L 8.203125 -11.65625 L 7.875 -7.5625 L 8.203125 -5.390625 L 8.203125 -3.34375 L 9.171875 -0.96875 L 11.234375 0.21875 L 14.890625 0 L 20.296875 0.328125 L 22.5625 0 L 25.046875 0.21875 L 27.203125 -0.859375 L 28.171875 -3.015625 L 27.859375 -5.1875 L 28.171875 -31.625 L 27.75 -33.890625 L 28.828125 -35.1875 L 30.234375 -34.875 L 45.671875 -19.75 L 47.390625 -18.359375 L 57.859375 -7.875 L 59.265625 -6.15625 L 61 -4.75 L 62.28125 -3.125 Z M 63.6875 -1.734375 "/></g></g></g><g fill="#ffffff" fill-opacity="1"><g transform="translate(2437.354529, 1176.54305)"><g/></g></g><g fill="#ffffff" fill-opacity="1"><g transform="translate(2466.611276, 1176.54305)"><g><path d="M 11.234375 0.328125 L 13.390625 0 L 17.59375 0.21875 L 19.96875 -0.109375 L 23.421875 0.109375 L 26.453125 -1.1875 L 27.75 -3.125 L 27.421875 -14.46875 L 27.75 -17.8125 L 27.640625 -20.078125 L 27.859375 -23.96875 L 27.640625 -26.34375 L 27.640625 -30.546875 L 28.609375 -31.515625 L 29.6875 -31.09375 L 31.421875 -29.6875 L 32.703125 -28.0625 L 37.140625 -23.640625 L 38.546875 -21.921875 L 41.453125 -19.109375 L 43.71875 -17.484375 L 46.09375 -17.375 L 48.25 -19 L 49.765625 -20.625 L 51.0625 -21.921875 L 54.078125 -25.484375 L 55.59375 -26.5625 L 60.015625 -31.09375 L 61.421875 -31.734375 L 62.28125 -30.125 L 62.078125 -24.1875 L 62.390625 -19.859375 L 62.1875 -15.65625 L 62.390625 -11.65625 L 62.1875 -9.71875 L 62.390625 -4.859375 L 62.390625 -3.234375 L 63.265625 -0.75 L 65.53125 -0.109375 L 78.59375 0.328125 L 80.859375 -0.859375 L 82.15625 -4 L 81.828125 -9.609375 L 82.046875 -11.765625 L 81.828125 -44.15625 L 82.046875 -46.53125 L 81.9375 -57.21875 L 82.046875 -59.265625 L 81.828125 -63.90625 L 81.9375 -65.75 L 81.828125 -70.171875 L 82.046875 -72.21875 L 80.75 -74.484375 L 78.484375 -75.671875 L 75.34375 -74.703125 L 73.078125 -73.296875 L 68.546875 -68.546875 L 67.140625 -66.828125 L 65.84375 -65.640625 L 64.34375 -63.6875 L 54.84375 -53.96875 L 53.4375 -52.140625 L 46.859375 -45.453125 L 44.90625 -44.15625 L 42.640625 -45.015625 L 41.34375 -46.859375 L 39.828125 -48.359375 L 37.890625 -50.84375 L 35.515625 -53 L 25.6875 -63.90625 L 24.1875 -65.203125 L 21.375 -68.546875 L 19.640625 -70.0625 L 16.84375 -72.96875 L 14.359375 -74.8125 L 11.328125 -75.671875 L 8.953125 -74.59375 L 7.765625 -72.328125 L 8.09375 -65.75 L 7.765625 -61.53125 L 7.984375 -59.59375 L 7.875 -42.3125 L 8.09375 -40.15625 L 7.765625 -29.25 L 7.984375 -27.203125 L 7.875 -3.34375 L 9.0625 -1.078125 Z M 11.234375 0.328125 "/></g></g></g><g fill="#ffffff" fill-opacity="1"><g transform="translate(2556.864478, 1176.54305)"><g><path d="M 40.375 1.296875 L 46.421875 1.1875 L 52.890625 0.328125 L 61 -2.375 L 64.5625 -4.3125 L 66.171875 -5.609375 L 68.21875 -6.578125 L 71.25 -9.171875 L 72.65625 -11.125 L 74.15625 -12.625 L 78.90625 -19.859375 L 80.53125 -23.96875 L 81.390625 -28.0625 L 81.5 -30.015625 L 82.046875 -32.171875 L 82.15625 -34.4375 L 82.578125 -37.5625 L 82.265625 -42.96875 L 81.5 -47.390625 L 78.8125 -55.484375 L 76.75 -59.484375 L 74.375 -62.71875 L 71.359375 -66.0625 L 68.21875 -68.765625 L 65.75 -70.5 L 62.5 -71.890625 L 60.890625 -73.078125 L 52.578125 -75.671875 L 46.3125 -76.75 L 43.390625 -76.859375 L 31.953125 -75.25 L 23.859375 -72.21875 L 22.234375 -71.03125 L 20.296875 -70.0625 L 16.625 -67.359375 L 11.328125 -61.203125 L 7.984375 -55.484375 L 6.375 -51.390625 L 4.53125 -43.078125 L 4.203125 -34.328125 L 4.53125 -32.0625 L 5.078125 -30.125 L 5.296875 -28.0625 L 6.265625 -23.96875 L 11.234375 -14.140625 L 12.515625 -12.84375 L 13.921875 -11.125 L 15.546875 -9.609375 L 16.734375 -8.203125 L 20.296875 -5.390625 L 28.71875 -1.078125 L 31.84375 0 L 34.21875 0.21875 L 38.109375 1.078125 Z M 46.421875 -17.8125 L 40.484375 -17.8125 L 38.109375 -18.140625 L 34.21875 -19.75 L 32.5 -20.734375 L 29.578125 -23.109375 L 28.171875 -24.609375 L 26.671875 -26.671875 L 26.125 -28.390625 L 25.15625 -30.328125 L 24.296875 -34.328125 L 24.296875 -40.921875 L 24.828125 -42.859375 L 25.15625 -44.90625 L 26.015625 -46.859375 L 26.671875 -48.796875 L 29.25 -52.25 L 34.65625 -55.921875 L 36.0625 -56.453125 L 40.265625 -57.53125 L 43.296875 -57.75 L 48.46875 -57.109375 L 50.421875 -56.671875 L 52.359375 -55.8125 L 55.703125 -53.4375 L 59.90625 -49.015625 L 61.203125 -44.90625 L 62.1875 -42.859375 L 62.5 -40.921875 L 62.28125 -34.328125 L 61.421875 -30.328125 L 60.671875 -28.390625 L 59.484375 -26.453125 L 58.828125 -24.828125 L 57.328125 -23.109375 L 52.140625 -19.546875 L 50.203125 -19 L 48.578125 -18.25 Z M 46.421875 -17.8125 "/></g></g></g><g fill="#ffffff" fill-opacity="1"><g transform="translate(2643.447098, 1176.54305)"><g><path d="M 63.6875 -1.734375 L 66.828125 -0.328125 L 69.625 0.546875 L 72.109375 -0.640625 L 73.078125 -2.921875 L 73.625 -32.28125 L 73.1875 -35.296875 L 73.40625 -37.671875 L 72.96875 -50.625 L 73.296875 -54.953125 L 73.078125 -57 L 73.078125 -61.3125 L 73.515625 -63.46875 L 73.296875 -66.71875 L 73.515625 -72.328125 L 72.21875 -74.265625 L 69.84375 -75.34375 L 67.6875 -75.5625 L 65.640625 -75.5625 L 63.265625 -75.34375 L 61 -75.671875 L 59.046875 -75.453125 L 56.890625 -75.5625 L 54.296875 -74.484375 L 53.21875 -72.21875 L 53.109375 -52.578125 L 53.546875 -50.3125 L 53.546875 -48.25 L 53.109375 -45.984375 L 53.21875 -41.671875 L 52.6875 -39.9375 L 51.171875 -40.375 L 46.421875 -45.234375 L 44.796875 -46.53125 L 41.015625 -50.421875 L 39.296875 -51.703125 L 38.109375 -53.21875 L 35.84375 -55.59375 L 32.5 -58.40625 L 31.3125 -60.015625 L 29.25 -61.421875 L 28.171875 -63.046875 L 26.34375 -64.34375 L 24.9375 -66.171875 L 19.109375 -72.109375 L 14.796875 -75.03125 L 11.875 -75.890625 L 9.28125 -74.59375 L 7.875 -72.546875 L 8.09375 -57.4375 L 7.875 -55.265625 L 8.203125 -50.84375 L 7.984375 -48.90625 L 8.09375 -46.640625 L 7.765625 -44.375 L 8.203125 -28.9375 L 7.984375 -26.984375 L 7.984375 -24.9375 L 7.765625 -22.5625 L 7.765625 -20.515625 L 8.09375 -18.25 L 7.984375 -13.8125 L 8.203125 -11.65625 L 7.875 -7.5625 L 8.203125 -5.390625 L 8.203125 -3.34375 L 9.171875 -0.96875 L 11.234375 0.21875 L 14.890625 0 L 20.296875 0.328125 L 22.5625 0 L 25.046875 0.21875 L 27.203125 -0.859375 L 28.171875 -3.015625 L 27.859375 -5.1875 L 28.171875 -31.625 L 27.75 -33.890625 L 28.828125 -35.1875 L 30.234375 -34.875 L 45.671875 -19.75 L 47.390625 -18.359375 L 57.859375 -7.875 L 59.265625 -6.15625 L 61 -4.75 L 62.28125 -3.125 Z M 63.6875 -1.734375 "/></g></g></g><g fill="#ffffff" fill-opacity="1"><g transform="translate(2724.847728, 1176.54305)"><g><path d="M 40.375 1.296875 L 46.421875 1.1875 L 52.890625 0.328125 L 61 -2.375 L 64.5625 -4.3125 L 66.171875 -5.609375 L 68.21875 -6.578125 L 71.25 -9.171875 L 72.65625 -11.125 L 74.15625 -12.625 L 78.90625 -19.859375 L 80.53125 -23.96875 L 81.390625 -28.0625 L 81.5 -30.015625 L 82.046875 -32.171875 L 82.15625 -34.4375 L 82.578125 -37.5625 L 82.265625 -42.96875 L 81.5 -47.390625 L 78.8125 -55.484375 L 76.75 -59.484375 L 74.375 -62.71875 L 71.359375 -66.0625 L 68.21875 -68.765625 L 65.75 -70.5 L 62.5 -71.890625 L 60.890625 -73.078125 L 52.578125 -75.671875 L 46.3125 -76.75 L 43.390625 -76.859375 L 31.953125 -75.25 L 23.859375 -72.21875 L 22.234375 -71.03125 L 20.296875 -70.0625 L 16.625 -67.359375 L 11.328125 -61.203125 L 7.984375 -55.484375 L 6.375 -51.390625 L 4.53125 -43.078125 L 4.203125 -34.328125 L 4.53125 -32.0625 L 5.078125 -30.125 L 5.296875 -28.0625 L 6.265625 -23.96875 L 11.234375 -14.140625 L 12.515625 -12.84375 L 13.921875 -11.125 L 15.546875 -9.609375 L 16.734375 -8.203125 L 20.296875 -5.390625 L 28.71875 -1.078125 L 31.84375 0 L 34.21875 0.21875 L 38.109375 1.078125 Z M 46.421875 -17.8125 L 40.484375 -17.8125 L 38.109375 -18.140625 L 34.21875 -19.75 L 32.5 -20.734375 L 29.578125 -23.109375 L 28.171875 -24.609375 L 26.671875 -26.671875 L 26.125 -28.390625 L 25.15625 -30.328125 L 24.296875 -34.328125 L 24.296875 -40.921875 L 24.828125 -42.859375 L 25.15625 -44.90625 L 26.015625 -46.859375 L 26.671875 -48.796875 L 29.25 -52.25 L 34.65625 -55.921875 L 36.0625 -56.453125 L 40.265625 -57.53125 L 43.296875 -57.75 L 48.46875 -57.109375 L 50.421875 -56.671875 L 52.359375 -55.8125 L 55.703125 -53.4375 L 59.90625 -49.015625 L 61.203125 -44.90625 L 62.1875 -42.859375 L 62.5 -40.921875 L 62.28125 -34.328125 L 61.421875 -30.328125 L 60.671875 -28.390625 L 59.484375 -26.453125 L 58.828125 -24.828125 L 57.328125 -23.109375 L 52.140625 -19.546875 L 50.203125 -19 L 48.578125 -18.25 Z M 46.421875 -17.8125 "/></g></g></g><g fill="#ffffff" fill-opacity="1"><g transform="translate(2811.430348, 1176.54305)"><g><path d="M 1.40625 -3.015625 L 2.046875 -0.640625 L 4.203125 0.21875 L 6.375 0.109375 L 8.203125 0.21875 L 10.359375 0 L 18.453125 0 L 21.15625 -0.859375 L 23.421875 -2.59375 L 25.796875 -6.265625 L 30.65625 -15.4375 L 35.40625 -22.78125 L 36.8125 -23 L 38 -21.046875 L 38.75 -19 L 40.265625 -17.171875 L 40.921875 -15.4375 L 48.6875 -2.484375 L 50.84375 -0.640625 L 53.21875 0.109375 L 57.4375 0 L 59.265625 0.21875 L 68.015625 0 L 69.734375 -0.640625 L 70.171875 -2.921875 L 69.203125 -5.609375 L 64.65625 -12.625 L 63.265625 -14.359375 L 62.28125 -16.078125 L 60.890625 -17.59375 L 60.015625 -19.546875 L 58.71875 -21.375 L 57.21875 -23 L 56.140625 -25.046875 L 55.0625 -26.671875 L 52.890625 -30.4375 L 51.5 -31.953125 L 49.328125 -35.625 L 47.828125 -37.453125 L 47.5 -40.046875 L 48.359375 -42.640625 L 49.546875 -44.484375 L 50.421875 -46.3125 L 51.703125 -48.140625 L 53.328125 -49.875 L 67.6875 -72.328125 L 66.9375 -74.484375 L 64.765625 -75.25 L 60.671875 -75.5625 L 58.40625 -75.34375 L 54.84375 -75.5625 L 52.78125 -75.453125 L 48.90625 -74.59375 L 46.859375 -72.65625 L 43.609375 -67.578125 L 42.203125 -65.84375 L 38.96875 -60.125 L 37.671875 -58.296875 L 36.703125 -56.5625 L 35.296875 -56.453125 L 33.796875 -58.515625 L 28.609375 -67.46875 L 27.203125 -69.09375 L 26.34375 -70.921875 L 25.046875 -72.765625 L 23.203125 -74.59375 L 20.40625 -75.453125 L 7.015625 -75.5625 L 4.3125 -74.8125 L 4 -72.109375 L 6.6875 -67.90625 L 7.984375 -66.0625 L 9.0625 -64.234375 L 10.578125 -62.71875 L 15.109375 -55.375 L 16.40625 -53.65625 L 18.78125 -49.765625 L 20.1875 -48.25 L 21.265625 -46.421875 L 22.125 -44.265625 L 23.421875 -42.421875 L 24.1875 -39.828125 L 23.640625 -37.25 L 22.5625 -35.734375 L 21.046875 -33.796875 L 20.1875 -31.953125 L 16.515625 -26.671875 L 15.875 -25.046875 L 13.0625 -21.265625 L 12.203125 -19.75 L 10.46875 -17.703125 L 9.609375 -15.875 L 3.125 -6.375 Z M 1.40625 -3.015625 "/></g></g></g><g fill="#ffffff" fill-opacity="1"><g transform="translate(2883.006765, 1176.54305)"><g><path d="M 5.1875 -3.125 L 6.265625 -0.859375 L 8.421875 -0.109375 L 40.484375 0.109375 L 42.53125 -0.96875 L 43.71875 -2.921875 L 43.71875 -5.296875 L 43.5 -7.234375 L 43.828125 -13.8125 L 42.3125 -15.65625 L 35.078125 -17.921875 L 33.890625 -20.078125 L 34.109375 -28.9375 L 33.6875 -33.25 L 34.109375 -37.78125 L 33.890625 -41.015625 L 34.109375 -44.375 L 33.890625 -46.421875 L 34.109375 -48.578125 L 33.890625 -50.84375 L 33.890625 -55.375 L 35.078125 -57.328125 L 37.140625 -58.515625 L 39.515625 -58.625 L 41.5625 -59.8125 L 42.75 -61.859375 L 42.75 -68.21875 L 42.96875 -70.171875 L 42.75 -72.328125 L 41.890625 -74.484375 L 38.4375 -75.453125 L 24.71875 -75.5625 L 22.34375 -75.34375 L 15.765625 -75.453125 L 13.703125 -75.34375 L 9.5 -75.5625 L 7.125 -74.484375 L 5.9375 -72.21875 L 5.9375 -70.171875 L 5.71875 -68.328125 L 5.71875 -65.953125 L 5.9375 -63.796875 L 5.9375 -61.75 L 7.015625 -59.703125 L 13.609375 -57.4375 L 15 -55.484375 L 14.6875 -46.3125 L 14.796875 -44.484375 L 15.109375 -42 L 15 -37.5625 L 14.796875 -35.40625 L 15.21875 -31.203125 L 14.6875 -29.046875 L 15.109375 -24.390625 L 14.890625 -20.1875 L 13.8125 -17.8125 L 6.6875 -15.546875 L 5.390625 -13.5 L 5.1875 -11.4375 Z M 5.1875 -3.125 "/></g></g></g><g fill="#ffffff" fill-opacity="1"><g transform="translate(2932.019836, 1176.54305)"><g><path d="M 8.09375 -3.34375 L 9.390625 -0.96875 L 11.125 0 L 13.609375 0 L 15.875 0.328125 L 18.03125 0.328125 L 20.296875 0 L 39.734375 -0.109375 L 46.640625 -1.078125 L 52.890625 -3.015625 L 62.078125 -9.171875 L 66.390625 -14.140625 L 69.734375 -19.546875 L 70.28125 -21.59375 L 71.359375 -23.640625 L 71.78125 -25.796875 L 72.546875 -27.75 L 72.875 -30.015625 L 73.40625 -32.28125 L 73.296875 -34.109375 L 73.734375 -41.015625 L 72.109375 -47.171875 L 71.890625 -49.4375 L 71.359375 -51.390625 L 69.734375 -55.703125 L 67.25 -59.375 L 66.390625 -61.203125 L 63.578125 -64.5625 L 61.75 -65.953125 L 58.71875 -68.875 L 54.734375 -71.359375 L 52.578125 -72.4375 L 46.640625 -74.375 L 42.203125 -75.25 L 26.875 -75.34375 L 24.71875 -75.5625 L 17.8125 -75.34375 L 15.65625 -75.5625 L 13.703125 -75.453125 L 11.4375 -75.5625 L 9.5 -74.375 L 7.875 -72.328125 L 7.875 -67.90625 L 8.09375 -65.75 L 7.984375 -63.578125 L 8.203125 -59.484375 L 7.875 -57.109375 L 8.203125 -54.953125 L 7.875 -52.78125 L 8.3125 -44.15625 L 7.984375 -40.046875 L 8.3125 -35.40625 L 7.984375 -33.359375 L 8.3125 -31.09375 L 7.984375 -26.875 L 8.203125 -18.25 L 7.984375 -16.078125 L 8.3125 -7.453125 Z M 30.984375 -17.375 L 28.390625 -18.359375 L 27.421875 -20.734375 L 27.640625 -22.890625 L 27.203125 -24.828125 L 27.53125 -26.984375 L 27.53125 -54.734375 L 28.828125 -56.671875 L 31.953125 -57.859375 L 34.21875 -57.75 L 36.484375 -57.859375 L 39.734375 -57.640625 L 44.046875 -56.34375 L 47.71875 -53.96875 L 50.421875 -50.953125 L 51.609375 -48.90625 L 53 -47.171875 L 54.296875 -40.8125 L 54.625 -37.453125 L 54.078125 -32.171875 L 53.4375 -30.125 L 51.8125 -26.234375 L 50.421875 -24.296875 L 49.015625 -22.78125 L 47.71875 -21.046875 L 45.984375 -19.96875 L 43.828125 -18.890625 L 39.9375 -17.8125 Z M 30.984375 -17.375 "/></g></g></g><g fill="#ffffff" fill-opacity="1"><g transform="translate(3010.505544, 1176.54305)"><g><path d="M 7.765625 -3.125 L 9.171875 -1.078125 L 11.234375 0.109375 L 35.625 -0.109375 L 37.5625 0.21875 L 44.15625 -0.109375 L 50.734375 0.328125 L 52.78125 0.109375 L 55.0625 -0.96875 L 56.03125 -3.015625 L 56.25 -5.078125 L 56.140625 -11.765625 L 56.34375 -13.8125 L 54.953125 -15.984375 L 51.703125 -17.0625 L 37.453125 -17.265625 L 35.40625 -16.953125 L 33.03125 -17.171875 L 30.65625 -16.953125 L 28.390625 -18.25 L 27.421875 -21.59375 L 27.53125 -26.875 L 28.5 -29.140625 L 30.4375 -30.328125 L 34.65625 -30.328125 L 36.8125 -30.546875 L 42.53125 -30.234375 L 45.453125 -30.4375 L 47.71875 -30.234375 L 49.65625 -30.328125 L 51.8125 -31.515625 L 52.890625 -33.578125 L 53.109375 -42.109375 L 52.890625 -44.265625 L 51.921875 -46.3125 L 50.09375 -47.5 L 45.765625 -47.609375 L 43.609375 -47.390625 L 41.34375 -47.390625 L 38.859375 -47.609375 L 30.328125 -47.5 L 28.5 -48.6875 L 27.203125 -50.625 L 26.984375 -53.96875 L 28.0625 -57.109375 L 31.421875 -58.078125 L 52.140625 -58.1875 L 54.40625 -59.375 L 55.59375 -61.3125 L 55.375 -65.75 L 55.0625 -67.796875 L 55.15625 -70.171875 L 55.484375 -72.21875 L 54.40625 -74.375 L 52.140625 -75.34375 L 43.5 -75.453125 L 41.5625 -75.25 L 39.40625 -75.5625 L 34.65625 -75.34375 L 32.5 -75.5625 L 28.28125 -75.453125 L 26.34375 -75.671875 L 12.203125 -75.34375 L 9.0625 -74.59375 L 7.984375 -72.21875 L 8.203125 -67.90625 L 7.765625 -64.765625 L 8.203125 -59.265625 L 7.984375 -57 L 8.203125 -55.0625 L 8.203125 -35.734375 L 7.875 -33.46875 L 8.203125 -29.25 L 7.984375 -24.9375 L 8.3125 -22.671875 L 8.09375 -20.296875 L 8.203125 -18.25 L 7.875 -16.296875 L 8.09375 -13.8125 L 8.09375 -11.65625 L 8.3125 -7.453125 L 8.203125 -5.296875 Z M 7.765625 -3.125 "/></g></g></g><g fill="#ffffff" fill-opacity="1"><g transform="translate(4381.723019, 1166.922738)"><g><path d="M 53.984375 1.46875 L 62.78125 1.90625 L 77.015625 -1.03125 L 85.09375 -4.546875 L 87.28125 -6.015625 L 89.921875 -7.625 L 92.421875 -9.390625 L 94.328125 -11.296875 L 95.9375 -13.796875 L 98.4375 -15.703125 L 102.84375 -23.328125 L 104.15625 -25.96875 L 104.890625 -28.75 L 105.921875 -31.6875 L 106.359375 -34.46875 L 105.484375 -37.109375 L 101.8125 -38.734375 L 86.109375 -38.875 L 82.890625 -37.40625 L 79.953125 -34.625 L 78.78125 -32.125 L 73.203125 -26.109375 L 68.21875 -23.625 L 65.28125 -22.734375 L 62.203125 -22.453125 L 53.984375 -22.59375 L 46.0625 -25.53125 L 43.28125 -26.84375 L 41.375 -28.90625 L 35.9375 -35.9375 L 34.765625 -38.4375 L 33.015625 -44.15625 L 32.5625 -51.046875 L 32.71875 -55.75 L 33.734375 -58.390625 L 33.890625 -61.328125 L 34.765625 -63.96875 L 37.265625 -69.25 L 40.9375 -73.796875 L 45.765625 -77.3125 L 48.5625 -78.484375 L 53.6875 -79.953125 L 62.78125 -79.65625 L 68.359375 -78.640625 L 71.4375 -77.609375 L 75.703125 -74.078125 L 77.90625 -71.734375 L 79.21875 -69.25 L 81.859375 -66.453125 L 85.09375 -65.140625 L 99.90625 -64.84375 L 102.84375 -65.140625 L 105.1875 -66.453125 L 106.0625 -69.53125 L 104.890625 -72.46875 L 104.453125 -75.109375 L 102.109375 -80.6875 L 96.671875 -88.171875 L 89.046875 -95.0625 L 85.828125 -97.265625 L 77.453125 -101.078125 L 71.734375 -102.6875 L 64.40625 -103.71875 L 51.046875 -103.71875 L 48.5625 -103.421875 L 45.765625 -102.546875 L 40.046875 -101.375 L 37.265625 -100.34375 L 35.0625 -99.03125 L 32.421875 -98 L 22.15625 -91.390625 L 20.390625 -89.046875 L 16.4375 -85.375 L 14.671875 -82.890625 L 7.921875 -69.6875 L 5.28125 -51.34375 L 5.875 -46.65625 L 5.875 -40.78125 L 7.328125 -35.0625 L 8.515625 -32.28125 L 8.953125 -29.640625 L 10.421875 -27 L 11.4375 -24.5 L 17.3125 -15.984375 L 22.59375 -10.859375 L 25.09375 -9.25 L 27.28125 -7.484375 L 37.265625 -2.046875 L 40.203125 -1.03125 L 42.390625 -0.4375 L 45.484375 0.59375 L 48.5625 0.875 L 51.203125 1.46875 Z M 53.984375 1.46875 "/></g></g></g><g fill="#ffffff" fill-opacity="1"><g transform="translate(4493.653014, 1166.922738)"><g><path d="M 54.859375 1.765625 L 63.078125 1.609375 L 71.890625 0.4375 L 82.890625 -3.234375 L 87.734375 -5.875 L 89.921875 -7.625 L 92.71875 -8.953125 L 96.828125 -12.46875 L 98.734375 -15.109375 L 100.78125 -17.171875 L 107.234375 -27 L 109.4375 -32.5625 L 110.609375 -38.140625 L 110.765625 -40.78125 L 111.5 -43.71875 L 111.640625 -46.796875 L 112.234375 -51.046875 L 111.78125 -58.390625 L 110.765625 -64.40625 L 107.09375 -75.40625 L 104.3125 -80.828125 L 101.078125 -85.234375 L 96.96875 -89.78125 L 92.71875 -93.453125 L 89.34375 -95.796875 L 84.9375 -97.703125 L 82.734375 -99.3125 L 71.4375 -102.84375 L 62.9375 -104.3125 L 58.96875 -104.453125 L 43.421875 -102.25 L 32.421875 -98.140625 L 30.21875 -96.53125 L 27.578125 -95.203125 L 22.59375 -91.546875 L 15.40625 -83.1875 L 10.859375 -75.40625 L 8.65625 -69.828125 L 6.15625 -58.53125 L 5.71875 -46.65625 L 6.15625 -43.578125 L 6.890625 -40.9375 L 7.1875 -38.140625 L 8.515625 -32.5625 L 15.25 -19.21875 L 17.015625 -17.453125 L 18.921875 -15.109375 L 21.125 -13.0625 L 22.734375 -11.15625 L 27.578125 -7.328125 L 39.015625 -1.46875 L 43.28125 0 L 46.5 0.296875 L 51.78125 1.46875 Z M 63.078125 -24.203125 L 55.015625 -24.203125 L 51.78125 -24.640625 L 46.5 -26.84375 L 44.15625 -28.171875 L 40.203125 -31.390625 L 38.296875 -33.453125 L 36.234375 -36.234375 L 35.5 -38.578125 L 34.1875 -41.21875 L 33.015625 -46.65625 L 33.015625 -55.59375 L 33.734375 -58.234375 L 34.1875 -61.03125 L 35.359375 -63.671875 L 36.234375 -66.3125 L 39.75 -71 L 47.09375 -76 L 49 -76.71875 L 54.71875 -78.1875 L 58.828125 -78.484375 L 65.875 -77.609375 L 68.515625 -77.015625 L 71.15625 -75.84375 L 75.703125 -72.625 L 81.421875 -66.609375 L 83.1875 -61.03125 L 84.5 -58.234375 L 84.9375 -55.59375 L 84.640625 -46.65625 L 83.46875 -41.21875 L 82.453125 -38.578125 L 80.828125 -35.9375 L 79.953125 -33.734375 L 77.90625 -31.390625 L 70.859375 -26.546875 L 68.21875 -25.8125 L 66.015625 -24.796875 Z M 63.078125 -24.203125 "/></g></g></g><g fill="#ffffff" fill-opacity="1"><g transform="translate(4611.30422, 1166.922738)"><g><path d="M 36.96875 1.90625 L 41.078125 2.046875 L 48.5625 1.609375 L 57.5 -1.171875 L 64.703125 -5.875 L 72.171875 -15.109375 L 73.359375 -17.890625 L 74.671875 -20.390625 L 75.84375 -23.171875 L 76.578125 -26.109375 L 77.015625 -29.046875 L 77.015625 -38 L 75.703125 -46.359375 L 71.890625 -54.421875 L 67.484375 -58.53125 L 62.9375 -61.609375 L 60 -62.9375 L 58.53125 -64.984375 L 58.390625 -68.0625 L 59.859375 -71 L 61.46875 -73.5 L 63.96875 -78.921875 L 66.890625 -83.921875 L 68.359375 -87 L 73.203125 -94.625 L 74.53125 -98.296875 L 73.796875 -101.515625 L 70.265625 -102.546875 L 63.078125 -102.84375 L 58.828125 -102.546875 L 55.59375 -102.84375 L 52.515625 -102.546875 L 23.46875 -102.546875 L 18.921875 -102.984375 L 15.84375 -102.6875 L 11.15625 -101.21875 L 9.96875 -98.296875 L 9.53125 -89.34375 L 9.96875 -83.625 L 11.296875 -80.6875 L 14.234375 -79.21875 L 35.203125 -79.21875 L 37.265625 -78.1875 L 37.703125 -75.265625 L 36.828125 -72.625 L 33.734375 -67.78125 L 28.015625 -54.578125 L 26.265625 -51.34375 L 27.28125 -48.265625 L 30.078125 -47.390625 L 41.375 -46.65625 L 44.015625 -45.765625 L 48.5625 -42.984375 L 50.3125 -40.640625 L 51.046875 -37.703125 L 51.5 -33.453125 L 51.046875 -29.046875 L 49.734375 -26.265625 L 47.390625 -23.46875 L 44.890625 -22 L 35.796875 -21.71875 L 31.390625 -24.796875 L 27.734375 -30.078125 L 24.359375 -31.25 L 9.828125 -31.546875 L 7.484375 -30.078125 L 6.15625 -26.84375 L 6.890625 -24.203125 L 7.328125 -21.125 L 9.25 -15.703125 L 12.765625 -10.5625 L 14.96875 -8.65625 L 16.71875 -6.453125 L 18.78125 -4.546875 L 22.453125 -2.203125 L 29.34375 0.59375 L 31.390625 0.875 L 34.03125 1.765625 Z M 36.96875 1.90625 "/></g></g></g><g fill="#ffffff" fill-opacity="1"><g transform="translate(388.091281, 1147.868138)"><g><path d="M 34.25 1.140625 L 44.3125 1.40625 L 46.859375 1.140625 L 49.40625 0.515625 L 51.953125 0.125 L 54.5 -0.890625 L 56.78125 -1.140625 L 59.203125 -2.296875 L 67.859375 -7.515625 L 71.5625 -11.328125 L 72.828125 -13.109375 L 74.234375 -15.921875 L 75 -18.203125 L 75.765625 -20.375 L 76.53125 -26.734375 L 76.265625 -30.8125 L 74.359375 -38.203125 L 72.953125 -40.234375 L 69.65625 -44.0625 L 67.359375 -46.09375 L 65.3125 -47.109375 L 63.03125 -48.515625 L 53.09375 -51.5625 L 50.546875 -51.953125 L 48 -52.078125 L 45.328125 -52.59375 L 41.640625 -52.59375 L 34.890625 -53.984375 L 30.171875 -56.28125 L 28.265625 -58.0625 L 27.75 -61.875 L 28.390625 -65.3125 L 29.921875 -66.96875 L 31.828125 -68.375 L 33.875 -69.515625 L 36.15625 -70.03125 L 40.234375 -70.15625 L 44.3125 -69.65625 L 46.609375 -69.015625 L 48.890625 -67.484375 L 51.0625 -65.703125 L 52.96875 -63.15625 L 55.765625 -61.5 L 61.75 -62.015625 L 65.1875 -61.75 L 67.734375 -61.75 L 70.03125 -61.5 L 72.453125 -63.28125 L 73.46875 -65.453125 L 72.953125 -67.859375 L 72.703125 -70.28125 L 69.140625 -76.90625 L 66.34375 -80.71875 L 57.9375 -86.578125 L 50.796875 -89 L 45.84375 -90.015625 L 36.03125 -90.28125 L 33.234375 -89.515625 L 30.6875 -89.390625 L 28.390625 -89 L 23.5625 -87.46875 L 19.21875 -84.921875 L 13.109375 -80.71875 L 8.65625 -74.734375 L 6.359375 -67.734375 L 5.984375 -61.5 L 6.109375 -57.546875 L 7 -52.453125 L 9.046875 -48 L 13.75 -42.140625 L 22.40625 -37.4375 L 27 -35.90625 L 46.984375 -33.609375 L 51.5625 -31.453125 L 53.21875 -29.921875 L 53.984375 -26.734375 L 52.96875 -23.5625 L 51.3125 -21.640625 L 46.984375 -19.734375 L 43.03125 -19.484375 L 40.75 -19.09375 L 34.25 -19.734375 L 32.09375 -20.875 L 29.921875 -22.28125 L 25.71875 -26.859375 L 23.171875 -27.890625 L 20.875 -27.625 L 18.46875 -28.015625 L 8.65625 -27.5 L 6.359375 -26.484375 L 5.34375 -23.8125 L 5.734375 -21.265625 L 6.234375 -18.71875 L 7 -16.421875 L 9.421875 -11.71875 L 11.203125 -10.0625 L 12.859375 -8.15625 L 17.3125 -5.34375 L 19.09375 -3.4375 L 21.515625 -2.296875 L 24.0625 -1.53125 L 29.03125 0.25 Z M 34.25 1.140625 "/></g></g></g><g fill="#ffffff" fill-opacity="1"><g transform="translate(469.322718, 1147.868138)"><g><path d="M 37.5625 1.015625 L 43.671875 1.53125 L 50.046875 1.265625 L 55.140625 0.125 L 57.8125 -0.890625 L 60.359375 -1.53125 L 62.390625 -2.796875 L 64.6875 -3.8125 L 66.71875 -5.21875 L 72.453125 -10.3125 L 73.84375 -12.609375 L 75.5 -14.515625 L 76.265625 -17.0625 L 77.546875 -19.21875 L 78.4375 -21.640625 L 79.328125 -34.5 L 78.9375 -44.8125 L 79.453125 -47.5 L 79.453125 -49.78125 L 78.9375 -52.328125 L 78.8125 -54.75 L 79.078125 -57.421875 L 78.9375 -60.984375 L 79.203125 -64.9375 L 79.078125 -67.734375 L 79.453125 -70.15625 L 79.078125 -72.703125 L 79.203125 -83.015625 L 78.8125 -85.1875 L 77.796875 -87.984375 L 73.71875 -89.125 L 61.75 -89.25 L 58.953125 -88.109375 L 57.671875 -85.3125 L 57.8125 -72.828125 L 57.546875 -70.28125 L 57.671875 -65.3125 L 57.421875 -62.640625 L 57.8125 -59.96875 L 57.421875 -49.90625 L 57.9375 -47.625 L 57.671875 -44.8125 L 57.8125 -40.234375 L 57.546875 -37.6875 L 57.671875 -31.203125 L 57.171875 -27.125 L 56.03125 -24.703125 L 54.875 -22.921875 L 52.84375 -21.015625 L 47.75 -19.359375 L 44.3125 -19.09375 L 40.109375 -19.359375 L 37.8125 -19.984375 L 35.015625 -21.390625 L 33.109375 -23.046875 L 31.578125 -24.828125 L 30.8125 -27.5 L 30.5625 -49.90625 L 30.171875 -52.453125 L 30.046875 -60.359375 L 30.296875 -62.640625 L 30.296875 -72.828125 L 29.921875 -76.53125 L 29.921875 -78.9375 L 30.5625 -82.765625 L 30.5625 -85.4375 L 29.15625 -87.859375 L 26.109375 -89 L 12.734375 -89.125 L 10.1875 -87.734375 L 9.046875 -85.1875 L 9.046875 -77.546875 L 8.40625 -75.375 L 8.90625 -70.03125 L 8.53125 -65.1875 L 9.171875 -57.546875 L 8.65625 -55.140625 L 9.046875 -52.328125 L 8.78125 -49.90625 L 8.90625 -47.359375 L 8.65625 -44.953125 L 9.046875 -39.859375 L 8.90625 -30.6875 L 9.296875 -27 L 9.296875 -24.3125 L 10.0625 -21.765625 L 10.4375 -19.359375 L 11.203125 -16.9375 L 13.75 -12.609375 L 17.1875 -8.40625 L 18.84375 -6.75 L 23.171875 -4.203125 L 25.078125 -2.671875 L 27.5 -1.65625 L 30.4375 -0.765625 L 32.34375 0.25 L 35.140625 0.375 Z M 37.5625 1.015625 "/></g></g></g><g fill="#ffffff" fill-opacity="1"><g transform="translate(557.174902, 1147.868138)"><g><path d="M 75.125 -2.03125 L 78.8125 -0.375 L 82.125 0.640625 L 85.0625 -0.765625 L 86.203125 -3.4375 L 86.84375 -38.078125 L 86.328125 -41.640625 L 86.578125 -44.4375 L 86.078125 -59.71875 L 86.453125 -64.8125 L 86.203125 -67.234375 L 86.203125 -72.328125 L 86.703125 -74.875 L 86.453125 -78.6875 L 86.703125 -85.3125 L 85.1875 -87.609375 L 82.375 -88.875 L 79.828125 -89.125 L 77.421875 -89.125 L 74.609375 -88.875 L 71.9375 -89.25 L 69.65625 -89 L 67.109375 -89.125 L 64.046875 -87.859375 L 62.765625 -85.1875 L 62.640625 -62.015625 L 63.15625 -59.328125 L 63.15625 -56.921875 L 62.640625 -54.234375 L 62.765625 -49.15625 L 62.140625 -47.109375 L 60.359375 -47.625 L 54.75 -53.34375 L 52.84375 -54.875 L 48.390625 -59.46875 L 46.34375 -60.984375 L 44.953125 -62.765625 L 42.265625 -65.578125 L 38.328125 -68.890625 L 36.921875 -70.796875 L 34.5 -72.453125 L 33.234375 -74.359375 L 31.0625 -75.890625 L 29.40625 -78.046875 L 22.53125 -85.0625 L 17.4375 -88.5 L 14 -89.515625 L 10.953125 -87.984375 L 9.296875 -85.5625 L 9.546875 -67.734375 L 9.296875 -65.1875 L 9.671875 -59.96875 L 9.421875 -57.671875 L 9.546875 -55 L 9.171875 -52.328125 L 9.671875 -34.125 L 9.421875 -31.828125 L 9.421875 -29.40625 L 9.171875 -26.609375 L 9.171875 -24.1875 L 9.546875 -21.515625 L 9.421875 -16.296875 L 9.671875 -13.75 L 9.296875 -8.90625 L 9.671875 -6.359375 L 9.671875 -3.953125 L 10.828125 -1.140625 L 13.234375 0.25 L 17.578125 0 L 23.9375 0.375 L 26.609375 0 L 29.546875 0.25 L 32.09375 -1.015625 L 33.234375 -3.5625 L 32.84375 -6.109375 L 33.234375 -37.3125 L 32.71875 -39.984375 L 34 -41.515625 L 35.65625 -41.125 L 53.859375 -23.296875 L 55.890625 -21.640625 L 68.25 -9.296875 L 69.90625 -7.25 L 71.9375 -5.609375 L 73.46875 -3.6875 Z M 75.125 -2.03125 "/></g></g></g></svg>